<svg width="24" height="24" viewBox="0 0 24 24" fill="none" xmlns="http://www.w3.org/2000/svg">
<g clip-path="url(#clip0_1_814)">
<path d="M2.48457 23.9533C1.8752 23.8736 1.37363 23.6393 0.918945 23.208C0.558008 22.8658 0.30957 22.4814 0.154883 22.0127C0.0283203 21.633 0.0283203 21.6283 0.0283203 20.2736C0.0283203 19.2096 0.0470703 18.8205 0.108008 18.4877C0.454883 16.5893 1.60801 15.1783 3.83926 13.9221C4.77207 13.3971 6.25332 12.8252 7.3502 12.5627C7.58926 12.5018 7.78145 12.4408 7.77207 12.4221C7.7627 12.4033 7.60801 12.258 7.42051 12.1033C6.49707 11.3111 5.66738 9.99395 5.34863 8.8127C5.01582 7.57988 5.02051 6.19238 5.3627 5.01582C6.01426 2.77051 7.83301 0.951758 10.0783 0.300195C11.2783 -0.0466797 12.7268 -0.0466797 13.9314 0.300195C16.3455 1.00332 18.2674 3.08457 18.7736 5.55488C18.9377 6.34707 18.9377 7.53301 18.7736 8.31113C18.2158 11.0111 16.1064 13.1252 13.4018 13.7111C13.2096 13.7486 12.6424 13.8049 12.1408 13.8283C9.77363 13.9502 9.02363 14.0393 7.79082 14.3439C5.94863 14.8033 4.11113 15.7174 3.08926 16.6783C2.49395 17.2361 2.15645 17.8033 1.96895 18.5486C1.87988 18.8955 1.87051 19.0455 1.88457 20.2361C1.89863 21.5346 1.89863 21.5486 2.01113 21.7127C2.07207 21.8018 2.19863 21.9283 2.2877 21.9893L2.45645 22.1018L9.1127 22.1252L15.7736 22.1486L15.9611 22.2471C16.2939 22.4252 16.4533 22.6924 16.4533 23.0627C16.4533 23.433 16.2939 23.7002 15.9611 23.8783L15.7736 23.9768L9.28145 23.9814C5.70957 23.9861 2.65332 23.9721 2.48457 23.9533ZM13.2752 11.8643C15.0705 11.3768 16.4393 9.99863 16.9314 8.18926C17.0205 7.85645 17.0346 7.6877 17.0346 6.9377C17.0346 6.1877 17.0205 6.01895 16.9314 5.68613C16.4346 3.85801 15.0799 2.50332 13.2518 2.00645C12.9189 1.91738 12.7502 1.90332 12.0002 1.90332C11.2502 1.90332 11.0814 1.91738 10.7486 2.00645C8.9252 2.50332 7.56582 3.8627 7.06895 5.68613C6.97988 6.01895 6.96582 6.1877 6.96582 6.9377C6.96582 7.6877 6.97988 7.85645 7.06895 8.18926C7.56113 9.99863 8.97207 11.4143 10.7252 11.8549C11.2549 11.9908 11.2971 11.9955 12.1408 11.9768C12.7408 11.9627 12.9939 11.9393 13.2752 11.8643Z" fill="#2A2A2A"/>
<path d="M14.7589 20.1282C14.7109 19.9004 14.7206 19.7649 14.8118 19.5439C14.8897 19.3582 14.9482 19.3039 16.0496 18.3777L17.2054 17.4068L16.2562 16.2332C15.3517 15.1138 15.3046 15.0493 15.2636 14.8523C15.1894 14.4822 15.2942 14.1892 15.5799 13.9537C15.8693 13.7152 16.1762 13.6748 16.5445 13.8268C16.7014 13.8919 16.807 14.0053 17.6885 15.0525L18.6594 16.2082L19.833 15.259C21.0826 14.2472 21.1145 14.2269 21.4896 14.2397C21.8382 14.25 22.2224 14.5833 22.3038 14.9475C22.3518 15.1752 22.3428 15.3042 22.2394 15.5473C22.1744 15.7042 22.061 15.8099 21.0137 16.6913L19.858 17.6622L20.8072 18.8359C21.7117 19.9552 21.7588 20.0197 21.7998 20.2168C21.874 20.5869 21.7692 20.8798 21.4835 21.1154C21.1941 21.3539 20.8872 21.3943 20.5189 21.2423C20.362 21.1772 20.2564 21.0638 19.3749 20.0166L18.404 18.8608L17.2303 19.8101C15.9808 20.8219 15.9488 20.8421 15.5738 20.8293C15.2449 20.821 14.8267 20.461 14.7589 20.1282Z" fill="#2A2A2A"/>
</g>
<defs>
<clipPath id="clip0_1_814">
<rect width="24" height="24" fill="white"/>
</clipPath>
</defs>
</svg>
