<svg width="52" height="52" viewBox="0 0 52 52" fill="none" xmlns="http://www.w3.org/2000/svg">
<circle cx="26" cy="26" r="26" fill="#E4BF44"/>
<path d="M21.9202 39.9508C21.4608 39.8359 21.1874 39.4914 21.1874 39.032C21.1874 38.7312 21.3186 38.4797 21.5866 38.2828C21.7342 38.1734 21.8163 38.168 23.4077 38.1516L25.0702 38.1352V36.8828V35.6359L24.9225 35.6031C24.835 35.5867 24.66 35.5594 24.5233 35.543C23.8397 35.4445 22.7241 35.0836 22.0569 34.75C21.3897 34.4109 20.5913 33.875 20.1592 33.4703L19.9842 33.3062L17.7803 35.4992C15.9046 37.375 15.5491 37.7031 15.3632 37.7523C14.685 37.9273 14.0725 37.3148 14.2475 36.6367C14.2967 36.4508 14.6303 36.0953 16.5171 34.2031C17.7311 32.9836 18.7264 31.9719 18.7264 31.95C18.7264 31.9336 18.6061 31.7203 18.4585 31.4852C17.9389 30.6484 17.6217 29.9102 17.3866 29.0078C17.146 28.0727 17.1296 27.9031 17.1022 25.3547C17.0749 22.8992 17.0749 22.8828 17.1952 22.6367C17.5671 21.8766 18.6608 21.9914 18.8905 22.8172C18.9233 22.943 18.9452 23.8727 18.9452 25.207C18.9452 27.668 18.978 28.0289 19.3061 29.0078C19.4921 29.5656 19.9678 30.5445 20.0717 30.5773C20.0991 30.5883 20.378 30.3367 20.6897 30.025L21.2585 29.4508L21.0889 29.0789C20.8647 28.5812 20.7061 28.0727 20.635 27.6406C20.6022 27.4164 20.5858 25.3219 20.5967 21.8711L20.6132 16.457L20.7389 16.0523C21.2257 14.4664 22.2592 13.2414 23.6757 12.5687C24.5397 12.1586 24.8952 12.082 25.9999 12.082C27.1046 12.082 27.46 12.1586 28.3241 12.5687C29.7405 13.2469 30.796 14.4937 31.2553 16.0523C31.3592 16.4078 31.3757 16.6211 31.3975 17.8406C31.4139 18.5953 31.4413 19.2188 31.4577 19.2188C31.4796 19.2188 32.6007 18.1141 33.9569 16.7633C36.0678 14.6578 36.4507 14.2969 36.6366 14.2477C37.3147 14.0727 37.9272 14.6852 37.7522 15.3633C37.703 15.5547 37.2655 16.0086 34.5694 18.7156L31.4413 21.8438L31.4139 24.7859L31.3811 27.7227L31.2389 28.1875C30.9327 29.1664 30.4897 29.9211 29.8335 30.5773C29.1444 31.2664 28.4061 31.7039 27.4491 31.9937C26.9952 32.1359 26.8858 32.1469 25.9999 32.1469C25.1194 32.1469 25.0046 32.1359 24.5507 31.9992C23.9163 31.8078 23.2491 31.4797 22.7897 31.1352L22.4288 30.8562L21.8491 31.4414L21.2694 32.0211L21.4608 32.1852C22.2647 32.8742 23.4624 33.443 24.6327 33.6945C25.2835 33.8313 26.7163 33.8313 27.3671 33.6945C28.7616 33.3992 29.91 32.7922 30.8999 31.8406C31.7366 31.0312 32.3272 30.0961 32.6936 29.0078C33.0217 28.0344 33.0546 27.668 33.0546 25.207C33.0546 23.8727 33.0764 22.943 33.1092 22.8172C33.3389 21.9914 34.4327 21.8766 34.8046 22.6367C34.9249 22.8828 34.9249 22.8992 34.8975 25.3547C34.8702 27.9031 34.8538 28.0727 34.6132 29.0078C33.9733 31.4797 32.2616 33.5742 29.9428 34.75C29.2757 35.0836 28.16 35.4445 27.4764 35.543C27.3397 35.5594 27.1647 35.5867 27.0827 35.6031L26.9296 35.6359V36.8828V38.1352L28.5921 38.1516C30.1835 38.168 30.2655 38.1734 30.4132 38.2828C30.9764 38.6984 30.9436 39.5078 30.353 39.8414L30.1288 39.9727L26.1092 39.9836C23.8999 39.9891 22.0132 39.9727 21.9202 39.9508ZM26.9022 30.2273C27.0827 30.1836 27.4163 30.0578 27.6405 29.9484C28.2147 29.6695 28.9038 28.9805 29.1827 28.4062C29.5546 27.6461 29.571 27.5422 29.5928 25.5078L29.6147 23.6758L26.6725 26.6125C23.8671 29.418 23.7358 29.5547 23.8397 29.6367C24.0858 29.8281 24.6272 30.0961 24.9335 30.1891C25.6061 30.3805 26.2296 30.3969 26.9022 30.2273ZM26.153 24.5617L29.6147 21.0945L29.5928 18.9672C29.571 16.6211 29.5655 16.5828 29.2046 15.8555C28.8436 15.1391 28.2967 14.5977 27.5585 14.2422C26.9842 13.9688 26.6342 13.8922 25.9999 13.8922C25.3655 13.8922 25.0155 13.9688 24.4413 14.2422C23.6811 14.6086 23.1397 15.15 22.7733 15.9102C22.4014 16.6867 22.4178 16.4133 22.4178 22.1172C22.4178 26.9898 22.4233 27.307 22.5217 27.657C22.5764 27.8594 22.6366 28.0234 22.6585 28.0234C22.6749 28.0234 24.2499 26.4648 26.153 24.5617Z" fill="black"/>
</svg>
