<svg width="52" height="52" viewBox="0 0 52 52" fill="none" xmlns="http://www.w3.org/2000/svg">
<circle cx="26" cy="26" r="26" fill="black" fill-opacity="0.61"/>
<path d="M21.9806 39.8962C21.5649 39.7923 21.3353 39.5188 21.3298 39.1196C21.3243 38.8243 21.4392 38.6274 21.7345 38.4305C21.9095 38.3048 21.9423 38.3048 23.572 38.3048H25.2345V37.1618V36.0188L25.0868 35.986C24.9993 35.9696 24.8134 35.9423 24.6603 35.9204C23.9548 35.8329 22.9157 35.5048 22.0899 35.1055C20.3728 34.2798 18.7978 32.7102 17.9501 30.9766C17.354 29.768 17.0423 28.4938 17.0259 27.2743C17.0204 26.6563 17.1024 26.4704 17.4798 26.2845C17.7806 26.1313 18.0485 26.1587 18.2946 26.3665C18.5407 26.5743 18.6009 26.7438 18.6392 27.3673C18.7595 29.243 19.4814 30.8837 20.7501 32.1798C23.2384 34.7173 27.1814 35.1438 30.129 33.1915C32.1251 31.8626 33.3064 29.8063 33.4704 27.3673C33.5087 26.7438 33.5689 26.5798 33.8149 26.3665C34.0501 26.1696 34.3181 26.1368 34.6134 26.268C34.9853 26.4321 35.0782 26.629 35.0782 27.2579C35.0728 28.4665 34.7228 29.861 34.1212 31.0477C33.2407 32.7977 31.7751 34.2415 30.036 35.0946C29.2267 35.4938 28.1657 35.8329 27.4493 35.9204C27.3017 35.9423 27.1103 35.9696 27.0282 35.986L26.8751 36.0188V37.1618V38.3048H28.5157C30.3095 38.3048 30.3423 38.3102 30.6103 38.6274C30.6814 38.7149 30.7634 38.879 30.7798 38.9884C30.8345 39.2618 30.6376 39.6555 30.3751 39.8087C30.1892 39.918 30.0853 39.918 26.1642 39.929C23.9548 39.9345 22.0735 39.918 21.9806 39.8962Z" fill="#E4BF44"/>
<path d="M25.1633 32.2344C23.9492 32.0156 22.7461 31.3102 21.9531 30.3586C21.5484 29.8773 21.0672 28.9312 20.8977 28.2969L20.7773 27.832V22.1172V16.4023L20.9031 15.9648C21.1766 15.0078 21.6305 14.2313 22.3031 13.5531C22.9977 12.8641 23.7469 12.4266 24.7422 12.1313C25.2617 11.9836 26.793 11.9836 27.3398 12.1313C28.543 12.4648 29.5711 13.143 30.2766 14.0781C30.6375 14.5539 31.0586 15.418 31.2117 15.9922L31.332 16.457V22.1445V27.832L31.2063 28.2969C31.0367 28.9422 30.5555 29.8773 30.1562 30.3586C29.4891 31.1625 28.5156 31.7969 27.5039 32.0977C27.0938 32.2234 26.8805 32.2508 26.2188 32.2672C25.7812 32.2727 25.3055 32.2617 25.1633 32.2344ZM26.968 30.5719C28.0289 30.293 28.8875 29.593 29.3578 28.6086C29.4891 28.3352 29.6313 27.9688 29.675 27.8047C29.7297 27.5641 29.7461 26.4484 29.7461 22.1172C29.7461 16.0852 29.768 16.4844 29.3469 15.6094C29.1938 15.2977 29.0352 15.0844 28.6797 14.7289C28.1602 14.2039 27.7391 13.9414 27.0938 13.7391C26.5086 13.5586 25.6008 13.5586 25.0156 13.7391C23.7523 14.1328 22.8227 15.0898 22.4617 16.375C22.3688 16.7086 22.3633 17.0641 22.3633 22.1172C22.3633 27.9195 22.3523 27.7391 22.6531 28.4336C23.1672 29.6313 24.25 30.4516 25.5898 30.6703C25.8688 30.7141 26.6289 30.6594 26.968 30.5719Z" fill="#E4BF44"/>
</svg>
