<?xml version="1.0" encoding="utf-8"?>
<!DOCTYPE svg PUBLIC "-//W3C//DTD SVG 1.0//EN" "http://www.w3.org/TR/2001/REC-SVG-20010904/DTD/svg10.dtd">
<svg version="1.0" xmlns="http://www.w3.org/2000/svg" width="209px" height="209px" viewBox="0 0 209 209" preserveAspectRatio="xMidYMid meet">
 <g fill="#ffffff">
  <path d="M79.7 158.5 c-2.5 -5.2 -2.7 -6.4 -2.7 -19.3 l0 -13.8 3 -2.9 c1.7 -1.6 3 -3.7 3 -4.7 0 -1.4 0.8 -1.8 3.6 -1.8 l3.7 0 -0.6 4.8 c-0.3 2.6 -0.2 5.4 0.2 6.1 0.5 0.7 3.9 3.5 7.7 6.1 l6.8 4.7 7.3 -5 7.3 -5.1 0 -4.8 c0 -4.7 0.1 -4.8 3 -4.8 2.2 0 3.9 1 6.5 3.8 l3.4 3.7 0.1 14 c0 13.8 -0.1 14.1 -3 19.3 -2.7 4.6 -3.4 5.2 -6.3 5.2 -2.9 0 -4.3 -1.1 -10.6 -8 -4 -4.4 -7.5 -8 -7.9 -8 -0.4 0 -3.8 3.6 -7.5 8 -6.3 7.4 -7.1 8 -10.5 8 -3.6 0 -3.9 -0.3 -6.5 -5.5z"/>
  <path d="M52 84.5 c0 -3.3 0.2 -3.5 3.5 -3.5 3.3 0 3.5 0.2 3.5 3.5 0 3.3 -0.2 3.5 -3.5 3.5 -3.3 0 -3.5 -0.2 -3.5 -3.5z"/>
  <path d="M52 62.5 c0 -3.3 0.2 -3.5 3.5 -3.5 3.3 0 3.5 0.2 3.5 3.5 0 3.3 -0.2 3.5 -3.5 3.5 -3.3 0 -3.5 -0.2 -3.5 -3.5z"/>
  <path d="M150 62.5 c0 -3.3 0.2 -3.5 3.5 -3.5 3.3 0 3.5 0.2 3.5 3.5 0 3.3 -0.2 3.5 -3.5 3.5 -3.3 0 -3.5 -0.2 -3.5 -3.5z"/>
 </g>
 <g fill="#edf6ff">
  <path d="M89.5 207.4 c-1.1 -0.2 -4.4 -0.9 -7.2 -1.5 l-5.3 -1 0 -28.5 c0 -31.6 0.4 -33.1 5.4 -21.9 1.6 3.6 3.2 6.5 3.7 6.5 0.4 0 4.4 -4.3 8.9 -9.5 7.8 -9.1 8.1 -9.7 6.4 -11 -1.7 -1.3 -1.5 -1.4 2.4 -1.5 4.2 0 5.6 1.2 2.6 2.4 -1.3 0.5 -1.2 0.9 0.6 2.8 2.1 2.2 2.1 2.3 0.2 2.6 -1.1 0.2 -2.8 1.2 -3.8 2.3 -0.9 1 -3 1.9 -4.6 1.9 -3.5 0 -3.5 1 -0.3 4 2.2 2.1 2.5 3.2 2.4 8.9 0 3.6 -1.2 14.9 -2.7 25.1 -2.9 19.9 -2.8 19.6 -8.7 18.4z"/>
  <path d="M113.5 206.8 c-1 -2.9 -5.5 -38.8 -5.5 -44 0 -3.7 0.5 -6 1.5 -6.8 0.8 -0.7 1.5 -2.7 1.5 -4.4 l0.1 -3.1 5.8 6.5 5.8 6.4 3.2 -5.4 c1.7 -3 3.1 -6.1 3.1 -6.7 0 -0.7 0.7 -1.3 1.5 -1.3 1.3 0 1.5 3.8 1.5 28.4 l0 28.4 -4.7 1.1 c-9.7 2.1 -13.3 2.3 -13.8 0.9z"/>
  <path d="M77 127.7 c0 -4.5 4.3 -8.6 8.8 -8.5 2.9 0.1 3.2 0.4 3.2 3.3 0 1.8 -0.7 3.8 -1.5 4.5 -1.3 1.1 -1.5 0.8 -1.5 -1.6 l0 -2.8 -3 2.9 c-1.6 1.6 -3 3.5 -3 4.2 0 0.7 -0.7 1.3 -1.5 1.3 -1 0 -1.5 -1 -1.5 -3.3z"/>
  <path d="M129 129.7 c0 -0.7 -1.3 -2.6 -3 -4.2 l-3 -2.9 0 2.8 c0 2.4 -0.2 2.7 -1.5 1.6 -0.8 -0.7 -1.5 -2.8 -1.5 -4.6 0 -3.2 0.2 -3.4 3.3 -3.4 4.4 0 8.7 4.3 8.7 8.8 0 2.2 -0.5 3.2 -1.5 3.2 -0.8 0 -1.5 -0.6 -1.5 -1.3z"/>
 </g>
 <g fill="#91dfe7">
  <path d="M23.3 166.3 c-8.6 -12.3 -14.9 -28.5 -17.2 -44 -4.5 -30.4 6.4 -61.9 29.2 -84.3 7.3 -7.2 19.8 -15.8 28.2 -19.5 3.3 -1.5 6.4 -3.2 6.8 -3.8 1.1 -1.5 0.3 5.5 -1.1 11.3 -0.7 2.5 -1.5 10.7 -1.8 18.2 l-0.6 13.8 -2.9 0 c-2.3 0 -3 0.5 -3.5 2.8 -0.4 1.5 -1.4 3.5 -2.3 4.6 -1.1 1.3 -1.6 3.8 -1.6 8.3 0 5.9 0.3 6.7 2.8 8.9 1.6 1.4 4.1 2.4 5.8 2.4 2.8 0 2.9 0.2 2.9 4.3 0 9 7.9 20.1 17.8 25.1 2.9 1.5 3.2 2.1 3.2 6 0 2.7 -0.6 4.8 -1.5 5.6 -1.3 1.1 -1.5 0.8 -1.5 -1.6 l0 -2.8 -3 2.9 c-1.6 1.6 -3 3.9 -3 5.1 0 1.9 -2.6 3.3 -20.6 11 -11.3 4.8 -21.6 9.6 -23 10.6 -2.2 1.8 -3.3 4.6 -6.4 16.6 -0.6 2.3 -1.4 4.2 -1.9 4.2 -0.4 0 -2.6 -2.6 -4.8 -5.7z"/>
  <path d="M178.6 166.3 c-0.9 -3.2 -2.1 -7.4 -2.6 -9.4 -0.5 -2 -1.8 -4.3 -2.9 -5.3 -1 -0.9 -11.3 -5.7 -22.7 -10.6 -18.5 -7.8 -20.9 -9.1 -21.2 -11.3 -0.2 -1.3 -1.8 -3.8 -3.6 -5.6 l-3.3 -3.2 0.5 3.3 c0.5 3 0.3 3.2 -1.2 1.9 -1.1 -0.9 -1.6 -2.9 -1.6 -6.1 0 -4.2 0.3 -4.9 2.4 -5.4 4.2 -1 12 -8.1 14.9 -13.4 1.7 -3.1 3.1 -7.5 3.4 -10.7 0.6 -5.2 0.7 -5.5 3.4 -5.5 1.5 0 4.1 -1.1 5.6 -2.4 2.5 -2.2 2.8 -3 2.8 -8.9 0 -4.5 -0.5 -7 -1.6 -8.3 -0.9 -1.1 -1.9 -3.1 -2.3 -4.6 -0.5 -2.2 -1.2 -2.8 -3.5 -2.8 -2.8 0 -2.8 0 -3.4 -8.2 -0.4 -4.6 -0.7 -11.3 -0.7 -14.9 0 -3.6 -0.7 -8.6 -1.6 -11.2 -0.8 -2.5 -1.4 -5.5 -1.2 -6.6 0.3 -1.9 0.9 -1.7 8.8 2.2 30.9 15.3 50.9 42.6 55.9 76.4 2.9 19.1 -0.6 39.5 -9.7 57.8 -3.7 7.6 -11 18.5 -12.3 18.5 -0.4 0 -1.5 -2.6 -2.3 -5.7z"/>
 </g>
 <g fill="#ffc886">
  <path d="M95.2 136.4 c-8.6 -5.9 -9.7 -7.6 -9 -13.9 0.2 -1.9 -0.1 -3.7 -0.7 -3.9 -0.5 -0.2 0.2 -0.5 1.8 -0.5 2.7 -0.1 2.7 0 2.7 6.4 l0 6.5 3 0 c1.7 0 3 0.5 3 1 0 0.6 0.7 1 1.5 1 0.8 0 1.5 0.5 1.5 1 0 0.6 0.7 1 1.5 1 0.8 0 1.5 0.5 1.5 1 0 0.6 1.1 1 2.5 1 1.4 0 2.5 -0.4 2.5 -1 0 -0.5 0.9 -1 2 -1 1.1 0 2 -0.7 2 -1.5 0 -0.8 0.7 -1.5 1.5 -1.5 0.8 0 1.5 -0.4 1.5 -1 0 -0.5 0.5 -1 1.1 -1 2 0 3.8 -3.4 3.9 -7.2 0 -3 0.4 -3.8 1.8 -3.8 1.5 0 1.9 0.8 2 3.9 0.1 2.2 -0.2 4.9 -0.6 6 -0.7 2 -15.7 13.1 -17.7 13.1 -0.6 0 -4.8 -2.5 -9.3 -5.6z"/>
  <path d="M85.3 95.1 c-3.8 -1 -11.4 -5.3 -13.4 -7.7 -1 -1.3 -1.4 -5.3 -1.6 -16.1 l-0.1 -14.3 12.9 0 12.9 0 0 10.5 c0 9.8 0.1 10.5 2 10.5 1.9 0 2 -0.7 2 -10.5 0 -9.9 -0.2 -10.7 -2.5 -13 -2.3 -2.4 -3 -2.5 -14.5 -2.5 l-12 0 0 -5.7 c0 -7.2 2.6 -13 7.4 -17 6.2 -5.1 11.8 -6.3 29.4 -6.3 18.9 0 25.1 1.4 31.6 7.1 l4.4 3.9 0.7 10.5 c0.4 6 1.2 10.5 1.8 10.5 0.6 0 0.8 3.3 0.5 9.3 -0.5 10.2 -2.6 15.7 -5.8 15.7 -1.5 0 -2 0.7 -2 2.8 0 3.3 -3.5 6.9 -10 10.3 -4.2 2.2 -5.8 2.4 -22.5 2.6 -9.9 0.1 -19.4 -0.2 -21.2 -0.6z m25 -12.8 c-1.3 -0.2 -3.5 -0.2 -5 0 -1.6 0.2 -0.5 0.4 2.2 0.4 2.8 0 4 -0.2 2.8 -0.4z m-26.3 -12.8 c1.7 -2 0.5 -4.5 -2 -4.5 -1.1 0 -2.3 0.7 -2.6 1.5 -0.6 1.5 1.1 4.5 2.6 4.5 0.4 0 1.3 -0.7 2 -1.5z m44.9 0.1 c1.5 -1.8 0.3 -4.6 -2 -4.6 -2.5 0 -3.5 2.6 -1.9 4.5 1.5 1.9 2.4 1.9 3.9 0.1z m5.9 -14.8 c-0.3 -2.1 -0.9 -2.3 -8.1 -2.6 -7.9 -0.3 -10.7 0.6 -10.7 3.4 0 1.1 2.1 1.4 9.6 1.4 9.3 0 9.5 -0.1 9.2 -2.2z"/>
  <path d="M56.9 85.9 c-1.4 -1.3 -2.9 -3.4 -3.3 -4.6 -0.6 -2 -0.4 -2.3 1.8 -2.3 1.6 0 2.6 0.6 2.6 1.4 0 0.8 0.5 1.6 1.1 1.8 0.6 0.2 0.9 1.7 0.7 3.3 l-0.3 2.9 -2.6 -2.5z"/>
  <path d="M149 85.1 c0 -2.8 0.3 -3.1 3 -3.1 3.4 0 3.8 1 1.3 3.2 -3.6 3.1 -4.3 3 -4.3 -0.1z"/>
  <path d="M53.6 65.8 c0.3 -1.2 1.3 -2.8 2 -3.6 0.8 -0.7 1.4 -2 1.4 -2.8 0 -0.8 0.7 -1.4 1.5 -1.4 1 0 1.5 1.1 1.5 3.5 0 1.9 -0.4 3.5 -1 3.5 -0.5 0 -1 0.7 -1 1.5 0 0.9 -1 1.5 -2.6 1.5 -2.2 0 -2.4 -0.3 -1.8 -2.2z"/>
  <path d="M151 66.5 c0 -0.8 -0.4 -1.5 -1 -1.5 -0.5 0 -1 -1.6 -1 -3.5 0 -2.4 0.5 -3.5 1.5 -3.5 0.8 0 1.5 0.6 1.5 1.4 0 0.8 0.6 2.1 1.4 2.8 0.7 0.8 1.7 2.4 2 3.6 0.6 1.9 0.4 2.2 -1.8 2.2 -1.6 0 -2.6 -0.6 -2.6 -1.5z"/>
 </g>
 <g fill="#9ed8d5">
  <path d="M119 120 c0 -3.9 0.1 -4 3.5 -4 2.8 0 3.5 -0.4 3.5 -2 0 -1.3 0.7 -2 2 -2 1.1 0 2 -0.5 2 -1.1 0 -0.7 1.4 -2.5 3 -4.1 1.7 -1.5 3 -3.3 3 -3.8 0 -0.6 0.4 -1 0.8 -1 0.5 0 1.5 -2.2 2.2 -5 1 -3.8 1.8 -5 3.3 -5 1.7 0 1.8 0.5 1.2 3.8 -1.6 8.6 -11 20 -18 21.8 -1.6 0.4 -2.6 1.6 -3 3.5 -1 4.5 -3.5 3.7 -3.5 -1.1z"/>
  <path d="M86.5 121 c-0.3 -0.5 -0.3 -1 0.2 -1 0.4 -0.1 -0.4 -0.8 -1.9 -1.6 -3.8 -2 -3.5 -3.4 0.7 -3.4 3.3 0 3.5 0.2 3.5 3.5 0 3.4 -1.2 4.6 -2.5 2.5z"/>
  <path d="M71.8 109 l-2.8 -3.5 2.6 -0.3 c3.3 -0.4 3.6 -0.1 3.2 3.9 l-0.3 3.4 -2.7 -3.5z"/>
  <path d="M65.6 97.3 c-0.3 -1.6 -0.7 -4.3 -0.8 -6 -0.2 -2.8 -0.6 -3.3 -2.9 -3.3 -1.4 0 -3.8 -1.1 -5.3 -2.5 -1.5 -1.4 -2.4 -2.5 -2 -2.5 0.5 0 0.3 -0.5 -0.4 -1.2 -1.5 -1.5 -1.6 -15.4 -0.2 -16.3 0.6 -0.4 0.8 -1 0.5 -1.5 -0.3 -0.4 0.2 -1 1 -1.4 0.8 -0.3 1.5 -1.4 1.5 -2.5 0 -3.7 1.2 -5.1 4.1 -5.1 3.2 0 3 1 3.4 -19 0.2 -8.3 0.4 -9 2 -9 1.3 0 1.5 2.4 1.5 15.5 l0 15.5 -3.5 0 c-3.1 0 -3.5 0.3 -3.5 2.5 0 1.5 -0.6 2.5 -1.4 2.5 -1.6 0 -2.6 4.3 -2.6 10.9 0 6.6 0.9 8.8 3.6 9.5 1.3 0.4 2.4 1.1 2.4 1.6 0 0.6 1.1 1 2.5 1 1.7 0 2.5 0.6 2.5 1.8 0 0.9 0.3 4.1 0.6 7 0.6 4.3 0.4 5.2 -0.9 5.2 -0.9 0 -1.8 -1.2 -2.1 -2.7z"/>
  <path d="M146 86 c0 -1.1 0.4 -2 1 -2 2.6 0 5 -4.5 5 -9.6 0 -7.1 -1 -11.4 -2.6 -11.4 -0.8 0 -1.4 -1 -1.4 -2.5 0 -2.2 -0.4 -2.5 -3.5 -2.5 -2.8 0 -3.5 -0.4 -3.5 -2 0 -1.2 0.7 -2 1.6 -2 1.5 0 1.6 -0.9 1.1 -6.7 -0.3 -4.1 -0.2 -6 0.3 -4.8 0.5 1.1 0.9 4.4 0.9 7.3 0.1 5.1 0.2 5.2 3 5.2 2.9 0 4.1 1.4 4.1 5 0 1.1 0.7 2.3 1.6 2.8 0.9 0.5 1.5 1.1 1.4 1.3 -0.1 0.2 0.2 1.2 0.5 2.2 0.4 0.9 0.5 5.1 0.3 9.2 -0.3 6.8 -0.6 7.8 -3.2 10 -3.6 3.1 -6.6 3.3 -6.6 0.5z"/>
  <path d="M140 25.4 c0 -1.4 -0.7 -3.2 -1.5 -4 -0.8 -0.9 -1.5 -2.9 -1.5 -4.5 0 -2.7 0.2 -2.8 2 -1.7 1.8 1.2 5 8.4 5 11.5 0 0.7 -0.9 1.3 -2 1.3 -1.5 0 -2 -0.7 -2 -2.6z"/>
  <path d="M67.1 19.1 c1.6 -4.5 3.9 -4.8 3.9 -0.6 0 3 -0.3 3.5 -2.4 3.5 -2.3 0 -2.4 -0.2 -1.5 -2.9z"/>
 </g>
 <g fill="#f1b574">
  <path d="M92.3 134.3 c-3.3 -2.2 -5.3 -4.3 -5.3 -5.5 0 -2.9 4.4 -2 4.8 1 0.3 1.7 1 2.2 3.3 2.2 2.6 0 2.9 0.3 2.9 3 0 1.7 -0.1 3 -0.2 2.9 -0.2 0 -2.7 -1.6 -5.5 -3.6z"/>
  <path d="M86.9 122.5 c-0.1 -0.8 -0.2 -2 -0.3 -2.6 0 -0.7 -1 -1.5 -2.1 -2 -1.5 -0.6 -1.1 -0.8 1.8 -0.8 3.6 -0.1 3.7 0 3.7 3.4 0 2.4 -0.5 3.5 -1.5 3.5 -0.8 0 -1.6 -0.7 -1.6 -1.5z"/>
  <path d="M87.9 96.1 c-9.4 -1.8 -18.9 -8.4 -18.9 -13.2 0 -2.2 -0.5 -2.9 -1.9 -2.9 -1.5 0 -2.4 -1.5 -4 -6.2 -3 -8.7 -2.7 -18.8 0.5 -18.8 1.1 0 1.4 -2.3 1.4 -10.9 l0 -10.9 4.1 -3.6 c6.7 -5.7 11.2 -6.8 30.5 -7.3 17.9 -0.6 30.2 0.7 32.9 3.3 0.7 0.8 2 1.4 2.9 1.4 0.8 0 3.1 1.4 5.1 3.1 3.3 2.9 3.5 3.4 3.5 9.3 l-0.1 6.1 -1.4 -4 c-2 -5.9 -9.1 -11.8 -16.2 -13.8 -8.1 -2.3 -29.1 -2.3 -36.1 -0.1 -9.1 3 -16.1 11.1 -16.2 18.7 l0 2.7 12 0 c11.6 0 12.2 0.1 14.6 2.5 2 2 3.5 2.5 7.2 2.5 3.9 0 4.9 -0.4 5.7 -2.2 0.9 -2.2 1.7 -2.3 12.2 -2.6 10.1 -0.2 11.3 -0.1 12.2 1.6 0.6 1.1 0.7 2.2 0.4 2.6 -0.3 0.3 0.5 0.6 1.8 0.6 4 0 6.9 1.1 6.9 2.6 0 1 -1.5 1.4 -5.9 1.4 -5.4 0 -6 -0.2 -6.3 -2.2 -0.3 -2.2 -0.7 -2.3 -8.8 -2.3 -8.1 0 -8.5 0.1 -8.8 2.3 -0.3 2.1 -0.8 2.2 -8.9 2.2 -7.9 0 -8.7 -0.2 -10.5 -2.5 -1.9 -2.4 -2.4 -2.5 -12.9 -2.5 -10 0 -10.9 0.2 -10.9 1.9 0 2.4 1.9 3.1 8.3 3.1 2.9 0 5.9 0.5 6.7 1 1 0.7 -1.1 1 -7 1 l-8.5 0 0.2 5.2 c0.1 2.9 0.2 6.8 0.2 8.6 l0.1 3.2 6.8 0.2 c6.4 0.2 6.5 0.2 1.3 0.5 -4.7 0.4 -5.2 0.6 -4.8 2.4 0.4 1.5 0 1.9 -2.1 1.9 l-2.5 0 2.2 2.4 c1.2 1.3 4.5 3.6 7.4 5.2 5.2 2.9 5.3 2.9 22.2 2.9 16.5 0 17.2 -0.1 22 -2.7 2.8 -1.4 6.1 -3.8 7.4 -5.2 l2.4 -2.6 -2.7 0 c-2.4 0 -2.7 -0.2 -1.6 -1.5 0.7 -0.8 2.1 -1.5 3.1 -1.5 1.1 0 1.9 -0.4 1.9 -1 0 -0.5 0.7 -1 1.5 -1 1.8 0 4 -4.2 4.9 -9.2 0.5 -2.5 1.2 -3.8 2.3 -3.8 1.3 0 1.5 0.9 1 5.3 -0.7 6.6 -2.5 10.7 -4.9 10.7 -1.3 0 -1.8 0.7 -1.8 2.8 0 2.9 -3.5 7.2 -5.8 7.2 -0.7 0 -1.2 0.4 -1.2 0.9 0 0.5 -2.4 1.9 -5.2 3.1 -4.6 2 -7.3 2.3 -20.3 2.6 -8.2 0.2 -17.1 -0.1 -19.6 -0.5z"/>
  <path d="M65 89.5 c0 -0.8 -0.9 -1.5 -2.1 -1.5 -2.5 0 -5.9 -1.7 -5.9 -3 0 -0.6 2.5 -1 5.5 -1 l5.5 0 0 3.5 c0 2.4 -0.5 3.5 -1.5 3.5 -0.8 0 -1.5 -0.7 -1.5 -1.5z"/>
  <path d="M141 87.5 l0 -3.5 5 0 c4.7 0 5 -0.2 5 -2.5 0 -1.8 0.5 -2.5 2 -2.5 3 0 2.5 3.4 -1.1 6.4 -1.7 1.4 -4.1 2.6 -5.5 2.6 -1.5 0 -2.4 0.6 -2.4 1.5 0 0.8 -0.7 1.5 -1.5 1.5 -1 0 -1.5 -1.1 -1.5 -3.5z"/>
  <path d="M98.1 83.4 c-1.5 -1.9 -2.6 -2.4 -4.1 -1.9 -1.7 0.5 -2 0.2 -2 -1.9 0 -2.3 0.4 -2.6 3.3 -2.6 1.7 0 4.2 -0.3 5.5 -0.6 1.6 -0.5 2.2 -0.2 2.2 1 0 1.2 1 1.6 4.4 1.6 4.1 0 4.3 -0.1 3.8 -2.5 -0.3 -2 0 -2.5 1.7 -2.5 1.4 0 2.3 0.8 2.7 2.5 0.3 1.4 1.2 2.5 2 2.5 0.8 0 1.4 0.7 1.4 1.5 0 0.8 -0.6 1.5 -1.4 1.5 -0.8 0 -1.8 0.9 -2.1 2 -0.7 2.3 -4.5 2.7 -4.5 0.5 0 -1 -1.1 -1.5 -3.5 -1.5 -2.4 0 -3.5 0.5 -3.5 1.5 0 2.4 -3.7 1.7 -5.9 -1.1z"/>
  <path d="M124.3 77.3 c1.5 -0.2 3.9 -0.2 5.5 0 1.5 0.2 0.2 0.4 -2.8 0.4 -3 0 -4.3 -0.2 -2.7 -0.4z"/>
  <path d="M77.6 72.9 c-5 -4 -2.1 -11.9 4.4 -11.9 6.4 0 9.1 7 4.5 11.5 -3 3 -5.4 3.1 -8.9 0.4z m7.4 -4.3 c0 -0.7 -0.7 -1.9 -1.5 -2.6 -1.9 -1.5 -4.7 0.4 -3.8 2.6 0.7 1.8 5.3 1.9 5.3 0z"/>
  <path d="M122.6 72.9 c-5 -4 -2.1 -11.9 4.4 -11.9 3.5 0 7 3.4 7 6.7 0 2.9 -4.2 7.3 -6.8 7.3 -1.1 0 -3.1 -0.9 -4.6 -2.1z m6.4 -3.3 c0 -0.2 0.3 -1.1 0.6 -1.9 0.7 -1.8 -2.4 -3.1 -4.2 -1.6 -1.7 1.4 -0.7 3.9 1.7 3.9 1 0 1.9 -0.2 1.9 -0.4z"/>
  <path d="M120 59 c0.8 -0.5 4 -1 7 -1 3 0 6.2 0.5 7 1 1 0.7 -1.1 1 -7 1 -5.9 0 -8 -0.3 -7 -1z"/>
 </g>
 <g fill="#ff9e5f">
  <path d="M102.5 144 c0.3 -0.5 1.2 -1 2 -1 0.8 0 1.7 0.5 2 1 0.4 0.6 -0.5 1 -2 1 -1.5 0 -2.4 -0.4 -2 -1z"/>
  <path d="M97 137.4 c-3.6 -2.5 -7.4 -5.4 -8.5 -6.5 -1.9 -1.9 -1.9 -1.9 1.3 -1.9 l3.2 0 0 -5.9 0 -5.8 15.8 -0.6 c8.6 -0.2 15.9 -0.3 16.1 -0.1 0.3 0.2 -0.3 1 -1.2 1.7 -1.1 0.8 -1.7 3 -1.9 6.6 l-0.3 5.5 -8 5.8 c-4.4 3.1 -8.4 5.7 -9 5.7 -0.5 0 -3.9 -2 -7.5 -4.5z"/>
  <path d="M65 88.5 c0 -1 -1 -1.5 -3.4 -1.5 -5.6 0 -7.6 -3.5 -7.6 -13.4 0 -6 0.5 -8.8 1.8 -10.7 2.9 -4.5 4.9 -5.9 8.1 -5.9 1.7 0 3.1 -0.4 3.1 -1 0 -0.5 0.9 -1 2 -1 1.2 0 1.7 -0.5 1.4 -1.4 -0.8 -2 2.2 -4.5 4.6 -3.9 2.3 0.6 2.7 3.3 0.5 3.3 -0.8 0 -1.5 0.9 -1.5 2 0 1.6 -0.7 2 -3 2 -1.9 0 -3 0.5 -3 1.4 0 0.7 -0.9 1.6 -2 1.9 -1.1 0.3 -2 1.4 -2 2.4 0 1.1 0.9 4.6 2 7.8 2.5 7.3 2.8 19.5 0.5 19.5 -0.8 0 -1.5 -0.7 -1.5 -1.5z"/>
  <path d="M141 83.3 c0 -3.8 0.7 -8.6 1.5 -10.8 2 -5.5 2 -12.5 0 -12.5 -0.8 0 -1.5 -0.7 -1.5 -1.5 0 -2.1 6.6 -2 8.8 0.2 4.3 4.2 5.2 6.7 5.2 14.9 0 9.9 -2 13.4 -7.6 13.4 -2.4 0 -3.4 0.5 -3.4 1.5 0 0.8 -0.7 1.5 -1.5 1.5 -1.2 0 -1.5 -1.4 -1.5 -6.7z"/>
  <path d="M99.1 84.1 c-1 -1 -2.1 -2.5 -2.3 -3.2 -0.4 -1.2 -0.7 -1.2 -2.1 0 -1.5 1.2 -1.7 1 -1.7 -1.8 0 -2.9 0.2 -3.1 3.5 -3.1 2.7 0 3.5 0.4 3.5 1.8 0 1 1.1 2.5 2.5 3.2 3 1.6 3.4 5 0.5 5 -1.1 0 -2.8 -0.8 -3.9 -1.9z"/>
 </g>
 <g fill="#989bad">
  <path d="M92 207.7 c0 -0.1 1.4 -9.6 3 -21 3.4 -23.3 3.5 -25.8 1.8 -27.5 -0.9 -0.9 -0.5 -1.2 2 -1.2 4.1 0 4.1 -0.6 0 27.8 -2.8 19.7 -3.3 22.2 -5 22.2 -1 0 -1.8 -0.1 -1.8 -0.3z"/>
  <path d="M110.2 185.8 c-4 -28.2 -4 -27.8 -0.2 -27.8 2.7 0 2.9 0.2 1.8 1.9 -1 1.6 -0.7 6 1.6 22.3 1.5 11.2 3 21.5 3.3 23.1 0.4 2.2 0.2 2.7 -1.4 2.7 -1.8 0 -2.2 -2 -5.1 -22.2z"/>
  <path d="M93.3 155.4 c-0.3 -0.9 0.3 -2.5 1.6 -3.7 l2.1 -2.1 0 3.7 c0 2.7 -0.4 3.7 -1.5 3.7 -0.9 0 -1.8 -0.7 -2.2 -1.6z"/>
  <path d="M108.2 152.7 c-1.4 -1.4 -2.2 -3.6 -2.2 -5.7 l0 -3.4 3.1 3 c1.7 1.6 4 4.1 5.1 5.7 l1.9 2.7 -2.9 0 c-1.7 0 -3.7 -0.9 -5 -2.3z"/>
  <path d="M39.2 145.8 c0.3 -0.7 1.9 -1.8 3.6 -2.5 3.1 -1.3 3.2 -1.2 3.2 1.2 0 2.2 -0.4 2.5 -3.6 2.5 -2.3 0 -3.4 -0.4 -3.2 -1.2z"/>
  <path d="M158 142.5 c0 -2.4 0.1 -2.5 3.2 -1.2 4.6 1.9 4.8 3.7 0.4 3.7 -3.2 0 -3.6 -0.3 -3.6 -2.5z"/>
  <path d="M146 137.5 c0 -2.4 0.1 -2.5 3.2 -1.2 4.6 1.9 4.8 3.7 0.4 3.7 -3.2 0 -3.6 -0.3 -3.6 -2.5z"/>
  <path d="M65 135 c0 -0.9 4.4 -3.2 11.8 -6.1 1.9 -0.7 2.2 -0.5 2.2 1.6 0 2.2 -0.4 2.5 -3.5 2.5 -2.4 0 -3.5 0.5 -3.5 1.5 0 1 -1.1 1.5 -3.5 1.5 -1.9 0 -3.5 -0.5 -3.5 -1z"/>
  <path d="M132 131.5 c0 -2.4 0.1 -2.5 3.2 -1.2 4.6 1.9 4.8 3.7 0.4 3.7 -3.2 0 -3.6 -0.3 -3.6 -2.5z"/>
  <path d="M87 121.1 c0 -1.4 -1.4 -2.6 -4.4 -4 -8.1 -3.5 -15.5 -12.8 -17.1 -21.4 -0.6 -3.3 -0.5 -3.7 1.3 -3.7 1.3 0 2.2 0.8 2.5 2.3 0.2 1.2 0.5 -1.3 0.6 -5.5 l0.1 -7.8 3.8 0.1 c3.5 0.1 3.6 0.2 0.8 0.8 l-3 0.6 3.5 2.9 c1.9 1.6 5.9 4.1 8.9 5.5 5.2 2.4 6.5 2.6 20.5 2.6 14.9 0 15.1 0 21.6 -3.2 3.5 -1.8 7.5 -4.4 8.9 -5.8 l2.3 -2.5 -2.7 0 c-2.4 0 -2.7 -0.2 -1.6 -1.5 0.7 -0.8 2.1 -1.5 3.1 -1.5 1.1 0 1.9 -0.4 1.9 -1 0 -0.5 0.7 -1 1.5 -1 0.8 0 1.5 -0.1 1.5 -0.2 0 -0.2 0.7 -2.1 1.5 -4.3 l1.4 -4 0.1 4.5 c0 5.9 1.8 4 2.3 -2.5 0.2 -3.5 0.4 -2.6 0.5 3.3 0.2 6.4 -0.1 8.2 -1.2 8.2 -1 0 -1.5 2.1 -1.8 7.8 -0.6 9.2 -3.1 15.1 -9 21 -7 7.1 -11.4 8.7 -26 9 -9.5 0.3 -12.8 0.7 -12.8 1.6 0 0.8 -1.6 1.3 -4.5 1.4 -3.9 0.2 -4.5 -0.1 -4.5 -1.7z"/>
  <path d="M64.4 77.4 c0.3 -0.9 0.6 -3.2 0.7 -5.2 l0.1 -3.7 1.5 4.3 c0.8 2.3 2.1 4.2 2.9 4.2 0.8 0 1.4 0.5 1.4 1 0 0.6 -1.6 1 -3.6 1 -2.9 0 -3.5 -0.3 -3 -1.6z"/>
  <path d="M62.3 69.5 c0 -2.2 0.2 -3 0.4 -1.7 0.2 1.2 0.2 3 0 4 -0.3 0.9 -0.5 -0.1 -0.4 -2.3z"/>
  <path d="M85 66.5 c0 -3.9 1.4 -4.6 3 -1.4 1.4 2.5 0.6 4.9 -1.5 4.9 -1.1 0 -1.5 -1 -1.5 -3.5z"/>
  <path d="M57 62.8 c0 -3 1.3 -5.8 2.6 -5.8 0.9 0 1.4 1.2 1.4 3.5 0 2.8 -0.4 3.5 -2 3.5 -1.1 0 -2 -0.6 -2 -1.2z"/>
  <path d="M148 60.5 c0 -4 2.4 -4.9 3.4 -1.2 1 3.7 0.7 4.7 -1.4 4.7 -1.6 0 -2 -0.7 -2 -3.5z"/>
  <path d="M142.6 40.6 c-1.6 -6.5 -10.5 -12.6 -21.1 -14.5 -3.2 -0.6 -6 -1.1 -6.2 -1.1 -0.2 0 -0.3 -0.7 -0.3 -1.5 0 -2.8 10.4 -1.6 19.3 2.2 2 0.9 3.7 2 3.7 2.5 0 0.4 0.5 0.8 1 0.8 0.6 0 0.8 -2 0.4 -5.5 -1 -8.5 2.5 -7 4.1 1.8 0.6 3 0.4 3.7 -0.9 3.7 -1 0 -1.6 0.9 -1.6 2.5 0 1.6 0.6 2.5 1.5 2.5 1.1 0 1.5 1.2 1.5 4.5 0 5 -0.5 5.7 -1.4 2.1z"/>
  <path d="M71 30 c0 -2.7 0.3 -3 3 -3 1.9 0 3 -0.5 3 -1.4 0 -1.6 7.7 -3.6 13.5 -3.6 4.9 0 4.7 2.7 -0.2 3.5 -7 1.1 -11.8 2.6 -15.5 5.1 l-3.8 2.4 0 -3z"/>
  <path d="M65 26.8 c0 -3 1.3 -5.8 2.6 -5.8 0.9 0 1.4 1.2 1.4 3.5 0 2.8 -0.4 3.5 -2 3.5 -1.1 0 -2 -0.6 -2 -1.2z"/>
  <path d="M67.7 18.3 c0.7 -1.9 2.8 -4.3 3.7 -4.3 0.3 0 0.6 1.4 0.6 3 0 2.5 -0.4 3 -2.5 3 -1.9 0 -2.3 -0.4 -1.8 -1.7z"/>
 </g>
 <g fill="#ff8c4c">
  <path d="M94.8 135.3 l-7.8 -5.4 0 -6 c0 -4.6 -0.3 -5.9 -1.5 -5.9 -0.8 0 -1.5 -0.4 -1.5 -1 0 -1.5 2.9 -1.2 8.1 0.6 3.6 1.3 4.5 2.1 4.2 3.5 -1.1 4 0.7 6.7 7.6 11.4 l7 4.8 -2.4 1.8 c-3.4 2.8 -5.2 2.3 -13.7 -3.8z"/>
  <path d="M110 84.1 c0 -1.6 0.6 -2.1 2.6 -2.1 3.3 0 3 3.3 -0.4 3.8 -1.7 0.3 -2.2 -0.2 -2.2 -1.7z"/>
  <path d="M59.7 80.2 c-0.9 -1 -2 -3.3 -2.3 -5 -0.5 -2.7 -0.4 -3.2 1.2 -3.2 2.5 0 3.8 1 4.9 3.5 0.8 1.9 0.9 1.9 1.2 -0.2 0.6 -3.4 2.3 -2.8 2.3 0.8 0 5.3 -4.1 7.6 -7.3 4.1z"/>
  <path d="M143.3 80.5 c-1.7 -1.9 -1.6 -3.5 0.2 -3.5 0.9 0 1.9 -0.8 2.2 -1.7 0.8 -2.3 2.3 -3.3 4.7 -3.3 1.6 0 1.7 0.5 1.2 3.2 -1.1 5.8 -5.5 8.6 -8.3 5.3z"/>
  <path d="M71 52 c0 -1.3 0.7 -2 2 -2 1.3 0 2 0.7 2 2 0 1.3 -0.7 2 -2 2 -1.3 0 -2 -0.7 -2 -2z"/>
 </g>
 <g fill="#7f859b">
  <path d="M92.5 205.8 c0.2 -1.3 1.2 -7.5 2 -13.8 2.1 -15.7 2.5 -17 4.1 -17 1.8 0 1.8 1.8 -0.6 17.5 -1.1 7.2 -2 13.6 -2 14.3 0 0.6 -0.9 1.2 -2 1.2 -1.6 0 -1.9 -0.5 -1.5 -2.2z"/>
  <path d="M113 206.8 c0 -0.7 -0.9 -7.1 -2 -14.3 -2.4 -15.7 -2.4 -17.5 -0.6 -17.5 1.6 0 2 1.3 4.1 17 0.8 6.3 1.8 12.5 2 13.8 0.4 1.7 0.1 2.2 -1.5 2.2 -1.1 0 -2 -0.6 -2 -1.2z"/>
  <path d="M178.6 167.9 c-1 -5.1 -0.7 -7.9 0.8 -7.9 0.8 0 1.8 1.9 2.5 4.4 1.5 6 1.4 6.6 -0.8 6.6 -1.3 0 -2 -1 -2.5 -3.1z"/>
  <path d="M98 166.8 c0 -3 1.3 -5.8 2.6 -5.8 0.9 0 1.4 1.2 1.4 3.5 0 2.8 -0.4 3.5 -2 3.5 -1.1 0 -2 -0.6 -2 -1.2z"/>
  <path d="M107 164.5 c0 -4 2.4 -4.9 3.4 -1.2 1 3.7 0.7 4.7 -1.4 4.7 -1.6 0 -2 -0.7 -2 -3.5z"/>
  <path d="M27 166 c0 -3.6 3.4 -14 4.6 -14 1.7 0 1.8 3.2 0.2 9.9 -0.9 3.8 -1.6 5.1 -3 5.1 -1 0 -1.8 -0.5 -1.8 -1z"/>
  <path d="M94.6 157.1 c-2 -2.2 -1.4 -4.1 2.8 -8 l2.6 -2.4 0 3.6 c0 2 -0.5 3.9 -1.1 4.2 -0.6 0.4 -1.4 1.6 -1.8 2.7 -0.7 1.9 -0.7 1.9 -2.5 -0.1z"/>
  <path d="M112 155.7 c0 -4 1 -4.6 3 -2.1 1.1 1.3 1 1.9 -0.8 3.7 l-2.2 2.1 0 -3.7z"/>
  <path d="M175.6 156.8 c-0.9 -3.6 -0.7 -7.8 0.5 -7.8 1.1 0 3.9 6 3.9 8.5 0 2.4 -3.7 1.8 -4.4 -0.7z"/>
  <path d="M104.7 149.3 c-0.4 -0.3 -0.7 -1.9 -0.7 -3.5 0 -3.6 1.5 -3.3 4.8 1 l2.5 3.2 -3 0 c-1.6 0 -3.3 -0.3 -3.6 -0.7z"/>
  <path d="M165.6 147.5 c-0.8 -0.8 -2.4 -1.5 -3.5 -1.5 -1.2 0 -2.1 -0.6 -2.1 -1.5 0 -1 -1.1 -1.5 -3.5 -1.5 -1.9 0 -3.5 -0.4 -3.5 -1 0 -0.5 -1.1 -1 -2.5 -1 -1.6 0 -2.5 -0.6 -2.5 -1.5 0 -1 -1 -1.5 -3.4 -1.5 -1.9 0 -4.1 -0.7 -5 -1.5 -0.8 -0.8 -2.4 -1.5 -3.5 -1.5 -1.2 0 -2.1 -0.6 -2.1 -1.5 0 -0.9 -0.9 -1.5 -2.5 -1.5 -1.9 0 -2.5 -0.5 -2.5 -2.1 0 -1.3 0.5 -1.9 1.3 -1.6 2.3 0.9 35.2 14.9 39.5 16.7 2.3 1.1 4.2 2.4 4.2 2.9 0 1.7 -6.7 1.3 -8.4 -0.4z"/>
  <path d="M37.2 146.8 c0.3 -0.9 27 -12.9 38.1 -17.1 1.3 -0.5 1.7 -0.1 1.7 1.8 0 2.2 -0.4 2.5 -3.5 2.5 -2.4 0 -3.5 0.5 -3.5 1.5 0 0.9 -0.9 1.5 -2.1 1.5 -1.1 0 -2.7 0.7 -3.5 1.5 -0.9 0.8 -2.4 1.5 -3.5 1.5 -1.1 0 -2.7 0.7 -3.5 1.5 -0.9 0.8 -2.6 1.5 -4 1.5 -1.3 0 -2.4 0.5 -2.4 1 0 0.6 -1.6 1 -3.5 1 -2.4 0 -3.5 0.5 -3.5 1.5 0 1.1 -1.1 1.5 -3.6 1.5 -2.3 0 -3.4 -0.4 -3.2 -1.2z"/>
  <path d="M84.6 117.5 c-11.8 -4.8 -18.6 -14.6 -19.4 -27.7 -0.3 -5.7 -0.8 -7.8 -1.8 -7.8 -1.1 0 -1.4 -1.8 -1.2 -7.7 0.1 -6.3 0.2 -6.8 0.5 -2.5 0.5 5.9 2.3 7.1 2.4 1.5 l0.1 -3.8 1.2 3.5 c0.7 1.9 2 3.6 2.9 3.8 1 0.2 1.7 0.7 1.7 1.2 0 0.5 1 1 2.2 1.2 2.7 0.4 3.7 2.8 1.1 2.8 -1.8 0 -1.8 0.6 -1.2 7.6 0.9 9.6 4.4 16.9 10.8 22.6 2.6 2.4 6.8 5.1 9.2 6 l4.4 1.7 -3.5 0 c-1.9 0 -6.2 -1 -9.4 -2.4z"/>
  <path d="M122.6 72.4 c-2.3 -2.2 -2 -3.4 0.9 -3.4 2 0 2.5 0.5 2.5 2.5 0 2.9 -1.2 3.2 -3.4 0.9z"/>
  <path d="M130 67.5 c0 -3.9 2.4 -4.9 3.3 -1.4 0.7 2.7 -0.1 4.9 -1.9 4.9 -0.9 0 -1.4 -1.2 -1.4 -3.5z"/>
  <path d="M147 57 c0 -1.3 0.7 -2 2 -2 1.3 0 2 0.7 2 2 0 1.3 -0.7 2 -2 2 -1.3 0 -2 -0.7 -2 -2z"/>
  <path d="M65 38.5 c0 -2.2 0.7 -5.2 1.4 -6.7 1.3 -2.5 1.3 -2.8 -0.1 -2.8 -1.2 0 -1.4 -0.7 -0.8 -3.7 1.5 -8 6.2 -13.1 5.2 -5.5 -0.3 2 -0.9 4.9 -1.2 6.5 -0.7 2.4 -0.5 2.7 1.7 2.7 2.1 0 2.5 -0.7 3.6 -5.8 1.6 -7.6 6.6 -15.9 12 -19.7 4.3 -3 4.5 -3 17.5 -3 17.6 0 21.9 1.5 30.4 10.1 7.3 7.5 9.3 12.7 9.3 24.3 -0.1 7.2 -0.1 7.5 -1.4 4.6 -1.9 -4.1 -5.9 -8.1 -10.4 -10.4 -6.8 -3.5 -13.9 -4.3 -31.2 -3.9 -14.5 0.3 -17.1 0.7 -21.6 2.7 -5.5 2.4 -10.2 6.7 -12.7 11.6 l-1.6 3 -0.1 -4z"/>
 </g>
 <g fill="#6d7389">
  <path d="M94.6 192.3 c1.3 -8.7 2.4 -15.9 2.4 -16 0 -0.2 0.7 -0.3 1.5 -0.3 1.9 0 1.9 1.6 -0.5 17.5 -1.1 7.2 -2 13.3 -2 13.8 0 0.4 -0.8 0.7 -1.8 0.7 -1.8 0 -1.8 -0.7 0.4 -15.7z"/>
  <path d="M113 207.3 c0 -0.5 -0.9 -6.6 -2 -13.8 -2.4 -15.9 -2.4 -17.5 -0.5 -17.5 0.8 0 1.5 0.1 1.5 0.3 0 0.1 1.1 7.3 2.4 16 2.2 15 2.2 15.7 0.4 15.7 -1 0 -1.8 -0.3 -1.8 -0.7z"/>
  <path d="M97 174.2 c0 -0.5 0.5 -3.4 1.1 -6.6 1 -5.6 1 -5.8 -2.1 -9.2 -3.1 -3.6 -3.2 -5.4 -0.1 -5.4 2.6 0 4.1 2 4.1 5.6 0 1.8 0.5 3.4 1.1 3.6 0.8 0.3 0.9 2.3 0.4 6.6 -0.6 5.2 -1 6.2 -2.6 6.2 -1 0 -1.9 -0.4 -1.9 -0.8z"/>
  <path d="M107.5 168.8 c-0.5 -4.3 -0.4 -6.3 0.4 -6.6 0.6 -0.2 1.1 -1.8 1.1 -3.6 0 -3.6 1.5 -5.6 4.1 -5.6 3.1 0 3 1.8 -0.1 5.4 -3.1 3.4 -3.1 3.6 -2.1 9.2 1.4 7.5 1.4 7.4 -0.8 7.4 -1.6 0 -2 -1 -2.6 -6.2z"/>
  <path d="M177.7 164.8 c-1 -4 -1.7 -8.1 -1.7 -9 0 -1 -0.4 -1.8 -1 -1.8 -0.5 0 -1 -0.6 -1 -1.4 0 -0.8 -1.1 -1.7 -2.5 -2 -1.4 -0.4 -2.5 -1.3 -2.5 -2.1 0 -1 -1.1 -1.5 -3.5 -1.5 -2.4 0 -3.5 -0.5 -3.5 -1.5 0 -1 -1.1 -1.5 -3.5 -1.5 -3.1 0 -3.5 -0.3 -3.5 -2.5 0 -2.5 0.1 -2.5 3.3 -1.2 1.7 0.8 6.1 2.7 9.7 4.1 3.6 1.5 7.3 3.5 8.2 4.4 1.9 1.9 7.2 20.7 6.3 22.2 -1.6 2.6 -3.3 0.5 -4.8 -6.2z"/>
  <path d="M26 169.8 c0 -3 1.3 -5.8 2.6 -5.8 0.9 0 1.4 1.2 1.4 3.5 0 2.8 -0.4 3.5 -2 3.5 -1.1 0 -2 -0.6 -2 -1.2z"/>
  <path d="M30 154.4 c0 -2.1 1.8 -5.4 3 -5.4 0.6 0 1 1.6 1 3.5 0 2.8 -0.4 3.5 -2 3.5 -1.1 0 -2 -0.7 -2 -1.6z"/>
  <path d="M96 151.5 c0 -1.2 7.3 -8.5 8.5 -8.5 0.7 0 2 1.2 3 2.6 l1.7 2.6 -3.6 -0.4 c-3.2 -0.4 -3.6 -0.2 -3.6 1.9 0 1.9 -0.5 2.3 -3 2.3 -1.6 0 -3 -0.2 -3 -0.5z"/>
  <path d="M35 148 c0 -0.9 4.4 -3.2 11.8 -6.1 1.9 -0.7 2.2 -0.5 2.2 1.6 0 2.2 -0.4 2.5 -3.5 2.5 -2.4 0 -3.5 0.5 -3.5 1.5 0 1 -1.1 1.5 -3.5 1.5 -1.9 0 -3.5 -0.5 -3.5 -1z"/>
  <path d="M68 134 c0 -0.8 10.1 -6 11.6 -6 0.2 0 0.4 0.9 0.4 2 0 1.5 -0.7 2 -2.5 2 -1.6 0 -2.5 0.6 -2.5 1.5 0 1 -1.1 1.5 -3.5 1.5 -1.9 0 -3.5 -0.5 -3.5 -1z"/>
  <path d="M137 79 c0 -1.7 0.7 -2 4.4 -2 3.4 0 4.6 -0.4 4.9 -1.7 0.3 -1 0.5 -0.1 0.6 2 l0.1 3.7 -5 0 c-4.3 0 -5 -0.3 -5 -2z"/>
  <path d="M77.6 72.4 c-2.2 -2.2 -2.1 -2.4 1.9 -2.4 2.8 0 3.5 0.4 3.5 2 0 2.4 -3.2 2.7 -5.4 0.4z"/>
  <path d="M126 72 c0 -1.6 0.7 -2 3.5 -2 4 0 4.1 0.2 1.9 2.4 -2.2 2.3 -5.4 2 -5.4 -0.4z"/>
  <path d="M84.6 68.5 c-0.8 -3.8 -1.7 -4.3 -4 -2 -0.8 0.8 -2.4 1.5 -3.5 1.5 -1.7 0 -1.9 -0.4 -1.2 -2.2 0.4 -1.3 2 -3 3.4 -3.8 4.7 -2.7 10.5 2.3 9 7.9 -0.8 3.3 -3 2.5 -3.7 -1.4z"/>
  <path d="M120.8 69.5 c-1.4 -3.1 1 -7.2 4.7 -8.1 3.2 -0.8 7.5 1.9 7.5 4.6 0 2.4 -2.5 2.6 -4.6 0.5 -2.3 -2.3 -3.2 -1.8 -4 2 -0.7 4.1 -2 4.5 -3.6 1z"/>
  <path d="M76 59 c2 -1.3 11 -1.3 11 0 0 0.6 -2.7 1 -6.2 1 -4.5 0 -5.9 -0.3 -4.8 -1z"/>
  <path d="M122 59 c0 -1.3 9 -1.3 11 0 1.1 0.7 -0.3 1 -4.7 1 -3.6 0 -6.3 -0.4 -6.3 -1z"/>
  <path d="M58 57 c0 -1.3 0.7 -2 2 -2 1.3 0 2 0.7 2 2 0 1.3 -0.7 2 -2 2 -1.3 0 -2 -0.7 -2 -2z"/>
  <path d="M65 34.4 c0 -4 0.7 -9.5 1.7 -12.4 1.9 -6.1 8.4 -13.7 14.6 -17.3 4.3 -2.5 13.4 -4.7 19.1 -4.7 2.9 0.1 2.8 0.2 -1.4 1.7 -10.3 3.6 -17.5 11.2 -20.6 22 -1.2 4 -2.3 5.7 -4.9 7.3 -1.9 1.2 -4.6 4 -6 6.3 l-2.5 4.2 0 -7.1z"/>
 </g>
 <g fill="#9f5e32">
  <path d="M87.4 103.5 c-0.4 -0.8 -0.4 -2.2 0 -3 0.5 -1.3 3.1 -1.5 17.3 -1.3 l16.8 0.3 0 2.5 0 2.5 -16.8 0.3 c-14.2 0.2 -16.8 0 -17.3 -1.3z"/>
  <path d="M99.6 83.9 c-1.4 -1.1 -2.6 -2.7 -2.6 -3.6 0 -1.3 -0.3 -1.3 -1.6 -0.2 -1.1 0.9 -5.8 1.2 -17.7 1.1 -8.9 0 -16.6 -0.1 -17 -0.1 -1.7 -0.2 -3.7 -7.3 -3.7 -13.3 0 -7.5 1.6 -11.2 5 -11.6 7.6 -0.8 8.9 -1.3 9.2 -3.5 0.3 -2.1 0.7 -2.2 14 -2.5 13.3 -0.2 13.7 -0.2 15.5 2.1 2.4 3 5.5 4.1 9.8 3.3 2.5 -0.5 3.5 -1.3 3.7 -2.9 0.3 -2.1 0.7 -2.2 11.8 -2.2 11.1 0 11.5 0.1 11.8 2.2 0.3 2.2 1.6 2.7 9.2 3.5 3.4 0.4 5 4.1 5 11.6 0 6.6 -2 13.1 -4.2 13.3 -0.7 0.1 -6.3 0.1 -12.3 -0.1 -12.9 -0.2 -20.5 0.7 -20.5 2.5 0 3.2 -11.4 3.5 -15.4 0.4z m12.4 -5.8 c-0.5 -1.1 -1 -2.9 -1 -4 0 -3 3.8 -2.8 5 0.3 0.8 2.3 1.2 2.4 14.2 2.8 7.3 0.2 13.9 0.2 14.6 0 0.8 -0.3 1.2 -3 1.2 -8.8 l0 -8.4 -15 0 c-12.7 0 -15 0.2 -15 1.5 0 0.9 -0.9 1.5 -2.5 1.5 -1.6 0 -2.5 -0.6 -2.5 -1.5 0 -1.1 -1.1 -1.5 -4 -1.5 l-4 0 0 10 0 10 5 0 c4.7 0 5 -0.1 4 -1.9z m-19.3 -3.1 c0.3 -1.1 0.9 -2 1.4 -2 0.5 0 0.9 -2.2 0.9 -5 0 -2.7 -0.4 -5 -1 -5 -0.5 0 -1 -0.7 -1 -1.5 0 -1.3 -2.3 -1.5 -15 -1.5 l-15 0 0 8.5 0 8.5 14.6 0 c13.7 0 14.6 -0.1 15.1 -2z"/>
  <path d="M128 71.4 c0 -1.3 0.5 -2.4 1 -2.4 0.6 0 1 -0.9 1 -2 0 -2.5 2.7 -2.7 3.2 -0.2 0.6 2.5 -1.2 6 -3.3 6.5 -1.5 0.4 -1.9 0 -1.9 -1.9z"/>
  <path d="M120.8 68.3 c-0.2 -1 0.2 -2.8 1 -4 1.1 -1.8 2.3 -2.3 5.1 -2.1 l3.6 0.1 -3.2 0.4 c-3 0.4 -3.3 0.7 -3.3 3.9 0 3.6 -2.5 4.9 -3.2 1.7z"/>
  <path d="M78.9 73.2 c-2.4 -0.5 -4.1 -4.9 -2.9 -7.3 1.5 -2.6 3 -2.4 3 0.5 0 1.3 0.5 2.6 1.1 2.8 1.8 0.6 0.6 4.4 -1.2 4z"/>
  <path d="M83.2 71.3 c0.2 -2 0.9 -2.9 2.6 -3.1 2.8 -0.4 3.1 3.3 0.3 4.8 -2.9 1.5 -3.3 1.3 -2.9 -1.7z"/>
  <path d="M80.8 62.3 c1.2 -0.2 3 -0.2 4 0 0.9 0.3 -0.1 0.5 -2.3 0.4 -2.2 0 -3 -0.2 -1.7 -0.4z"/>
 </g>
 <g fill="#2e4b88">
  <path d="M71 202.6 c-5.7 -2 -6.7 -2.8 -8.4 -6.2 -2.8 -5.5 -3.3 -15.4 -1.1 -18.8 l1.7 -2.6 -3.6 0 -3.6 0 0 -4.8 c0 -3.2 1.5 -8.8 4.9 -17.7 4.6 -12.3 4.8 -13 2.9 -13.3 -1.2 -0.2 -2.4 0.1 -2.7 0.6 -0.8 1.3 -9.7 5.2 -11.8 5.2 -0.8 0 -2.1 0.7 -2.9 1.5 -0.9 0.8 -2.6 1.5 -4 1.5 -1.3 0 -2.4 0.4 -2.4 1 0 0.5 -1.1 1.2 -2.4 1.6 -1.9 0.4 -2.7 1.9 -4.5 7.7 -1.1 4 -2.4 8.7 -2.7 10.5 -0.6 3.1 -2.6 4.3 -3.9 2.2 -0.9 -1.5 4.4 -20.3 6.3 -22.2 1.3 -1.3 32.6 -15.1 45 -19.9 l2.2 -0.9 0 38.5 c0 30.2 -0.3 38.5 -1.2 38.5 -0.7 -0.1 -4.2 -1.1 -7.8 -2.4z"/>
  <path d="M93 204.7 c0 -0.2 1.4 -9.9 3 -21.6 l3.1 -21.2 -2.2 -3 -2.1 -3 3.3 0.3 c3.2 0.3 3.4 0.6 3.7 4.3 0.2 2.2 -0.9 13.1 -2.4 24.3 -2.5 17.7 -3 20.2 -4.6 20.2 -1 0 -1.8 -0.1 -1.8 -0.3z"/>
  <path d="M109.6 184.8 c-3.2 -23.4 -3.2 -28.1 0.2 -28.6 1.6 -0.3 2.2 -1 2.2 -2.9 0 -2.5 0.1 -2.6 2 -0.8 1.9 1.7 1.9 1.8 -1.1 5.5 l-3 3.7 3.1 21.3 c1.6 11.7 3 21.5 3 21.7 0 0.2 -0.8 0.3 -1.8 0.3 -1.6 0 -2.1 -2.5 -4.6 -20.2z"/>
  <path d="M129 166.6 l0 -38.6 3.3 1.3 c16.3 6.9 37.9 16.3 40.8 17.8 4 2 4.9 3.8 7.8 15.4 1.5 5.7 1.7 8.3 0.9 9.2 -0.6 0.7 -1.3 1.3 -1.7 1.3 -0.4 0 -1.8 -4.4 -3.1 -9.7 -2.2 -8.7 -4.5 -13.3 -6.7 -13.3 -1.7 0 -13.3 -5.4 -13.3 -6.2 0 -0.4 -0.9 -0.8 -1.9 -0.8 -1.1 0 -4.1 -0.9 -6.7 -2 -2.6 -1.1 -4.8 -1.9 -4.9 -1.8 -0.2 0.2 1.9 6.2 4.6 13.3 3.3 8.8 4.9 14.5 4.9 17.8 l0 4.7 -3.5 0 c-3.7 0 -4.4 1 -2 3 2.1 1.7 1.9 10.3 -0.2 16.4 -1.6 4.4 -2.4 5.2 -6.8 7.1 -2.7 1.2 -6.5 2.6 -8.2 3 l-3.3 0.7 0 -38.6z"/>
  <path d="M96.1 151.3 c3.4 -4.3 7.3 -8.3 8.1 -8.3 0.4 0 0.8 1.3 0.8 2.8 0 3.5 -4 7.2 -7.6 7.2 -2.4 0 -2.5 -0.2 -1.3 -1.7z"/>
  <path d="M81 72 c0 -1.6 0.7 -2 3.7 -2 3.5 0 3.6 0 1.8 2 -1 1.1 -2.6 2 -3.7 2 -1.1 0 -1.8 -0.7 -1.8 -2z"/>
  <path d="M122.5 72 c-1.8 -2 -1.7 -2 1.8 -2 3 0 3.7 0.4 3.7 2 0 1.3 -0.7 2 -1.8 2 -1.1 0 -2.7 -0.9 -3.7 -2z"/>
  <path d="M82 64 c0 -1.3 0.7 -2 2 -2 1 0 2.4 0.9 3 2 1 1.8 0.8 2 -2 2 -2.3 0 -3 -0.4 -3 -2z"/>
  <path d="M122 64 c0.6 -1.1 2 -2 3 -2 1.3 0 2 0.7 2 2 0 1.6 -0.7 2 -3 2 -2.8 0 -3 -0.2 -2 -2z"/>
 </g>
 <g fill="#293d7b">
  <path d="M96.5 207.7 c-1.6 -0.6 -3.1 -1.2 -3.3 -1.3 -0.3 -0.2 3.3 -27.2 4.4 -32.6 0.7 -3.4 3.4 -3.8 3.4 -0.5 0 1.2 -0.9 8.3 -2 15.7 -2.8 18.7 -3.2 17 5 17 6.6 0 9 1 5.4 2.4 -2.4 0.9 -9.5 0.5 -12.9 -0.7z"/>
  <path d="M110.2 190.3 c-2.6 -19.7 -2.6 -19.3 -0.7 -19.3 1.6 0 1.7 0.4 4.5 20.3 2.4 16.7 2.4 15.7 0.2 15.7 -1.5 0 -2 -2.2 -4 -16.7z"/>
  <path d="M57.6 196.5 c-8.4 -4.8 -15.7 -10 -22 -15.9 l-4 -3.6 2.8 -11.2 c1.6 -6.2 3.7 -12.5 4.7 -14 1.9 -2.8 1.9 -2.8 0 -2.8 -1 0 -2.1 0.9 -2.4 2 -0.3 1.4 -1.4 2 -3.2 2 -2.1 0 -2.6 -0.4 -2.1 -1.6 0.3 -0.9 0.6 -1.8 0.6 -2 0 -0.3 2.4 -1.6 5.3 -2.9 5 -2.4 5.2 -2.4 5.5 -0.6 0.3 1.8 0.8 1.7 7.9 -1.2 4.2 -1.8 6.8 -3.3 5.9 -3.5 -2.8 -0.6 -1.8 -2.2 2.7 -4.2 4.2 -1.9 4.2 -1.9 4.5 0.1 0.3 1.6 0.6 1.8 1.8 0.8 0.8 -0.6 1.4 -1.8 1.4 -2.5 0 -0.7 1.3 -2 3 -2.9 3.5 -1.8 4.6 -1.9 3.3 -0.2 -0.6 0.6 -1.5 2.6 -2.1 4.2 -0.6 1.7 -3.6 9.5 -6.6 17.5 -3.1 7.9 -5.6 15.2 -5.6 16.2 0 1.5 0.9 1.8 6 1.8 3.3 0 6 0.3 6 0.6 0 0.3 -1.8 2.6 -4 5.1 -2.2 2.5 -4 5.6 -4 6.8 0 1.3 1.1 5.3 2.5 8.9 1.4 3.7 2.5 6.9 2.5 7.1 0 1.3 -3.3 0.1 -10.4 -4z"/>
  <path d="M141 200.6 c0 -0.3 1.1 -3.5 2.5 -7.2 1.4 -3.6 2.5 -7.6 2.5 -8.7 0 -1.1 -1.8 -4.2 -4 -6.8 -2.2 -2.6 -4 -5 -4 -5.3 0 -0.3 2.7 -0.6 6 -0.6 5.1 0 6 -0.3 6 -1.7 0 -1 -3.1 -10 -6.9 -20.1 -6.1 -16.4 -6.6 -18.2 -4.7 -17.6 7 2.2 35.5 15 37.2 16.8 1.4 1.3 3.1 5.8 4.7 11.8 l2.5 9.7 -6.1 6.4 c-7 7.2 -16.2 14.2 -25.1 19.1 -6.2 3.5 -10.6 5.2 -10.6 4.2z"/>
  <path d="M27.2 171.7 c-1.5 -1.8 2.5 -17.7 4.4 -17.7 1.9 0 1.8 3 -0.3 11.8 -1.7 7.4 -2.3 8.2 -4.1 5.9z"/>
  <path d="M109.7 155.2 c-1 -1 -1.7 -3.4 -1.7 -5.3 l0 -3.4 3.6 3.7 c2.4 2.3 3.5 4.2 3.1 5.2 -0.8 2.1 -3 2 -5 -0.2z"/>
  <path d="M101.6 145.5 c1.9 -2.9 2.7 -3.1 4.4 -1 1.7 2 0.4 3.5 -3.1 3.5 -2.9 0 -2.9 0 -1.3 -2.5z"/>
  <path d="M62 78.6 c0 -1.8 0.5 -2.3 1.8 -2.1 6.2 1.3 7.2 1.7 7.2 3 0 1.1 -1.2 1.5 -4.5 1.5 -4.1 0 -4.5 -0.2 -4.5 -2.4z"/>
  <path d="M77.2 71.8 c-1.7 -1.7 -1.5 -6.4 0.4 -8.2 2.6 -2.7 3.7 -1.9 3 2.2 -0.3 2 -0.6 4.5 -0.6 5.5 0 2 -1.1 2.2 -2.8 0.5z"/>
  <path d="M84 71.3 c0 -1 -0.3 -3.5 -0.6 -5.5 -0.7 -4.1 0.4 -4.9 3 -2.2 1.9 1.8 2.1 6.5 0.4 8.2 -1.7 1.7 -2.8 1.5 -2.8 -0.5z"/>
  <path d="M122.2 71.8 c-1.7 -1.7 -1.5 -6.4 0.4 -8.2 2.6 -2.7 3.7 -1.9 3 2.2 -0.3 2 -0.6 4.5 -0.6 5.5 0 2 -1.1 2.2 -2.8 0.5z"/>
  <path d="M129 71.3 c0 -1 -0.3 -3.5 -0.6 -5.5 -0.7 -4.1 0.4 -4.9 3 -2.2 1.9 1.8 2.1 6.5 0.4 8.2 -1.7 1.7 -2.8 1.5 -2.8 -0.5z"/>
 </g>
 <g fill="#1a2a62">
  <path d="M98.3 208.2 c-2.9 -0.1 -5.3 -0.5 -5.3 -0.7 0 -0.2 1.1 -8.2 2.4 -17.7 4.4 -31 4.3 -28.5 0.7 -32.2 l-3.1 -3.2 5.8 -5.7 5.8 -5.7 3 3.2 c1.6 1.8 4 4.5 5.4 6.1 l2.4 2.7 -2.8 2.9 c-3.3 3.4 -3.3 1.1 1 32 1.3 9.6 2.3 17.5 2.2 17.6 -0.7 0.5 -12.9 1.1 -17.5 0.7z"/>
  <path d="M30.4 175.3 l-4.1 -4.6 2.4 -9.6 c1.6 -6.2 3.2 -10.4 4.6 -11.8 1.2 -1.2 6.7 -4 12.2 -6.3 5.5 -2.3 13.9 -5.9 18.7 -8 l8.7 -3.9 -1.6 4.2 c-0.9 2.3 -2.1 4.7 -2.7 5.4 -0.6 0.6 -6.1 3.2 -12.3 5.8 -6.2 2.6 -12.1 5.8 -13.3 7 -1.3 1.3 -3.2 6.7 -5.1 13.6 -1.6 6.3 -3 11.7 -3.2 12.1 -0.1 0.4 -2 -1.4 -4.3 -3.9z"/>
  <path d="M78 72 c-2.5 -2.5 -2.6 -6.2 -0.2 -8.3 3.9 -3.5 10.2 -0.9 10.2 4.1 0 2.8 -3.4 6.2 -6 6.2 -1.1 0 -2.9 -0.9 -4 -2z"/>
  <path d="M123 72 c-2.5 -2.5 -2.6 -6.2 -0.2 -8.3 3.9 -3.5 10.2 -0.9 10.2 4.1 0 2.8 -3.4 6.2 -6 6.2 -1.1 0 -2.9 -0.9 -4 -2z"/>
 </g>
 <g fill="#000000">
  <path d="M60.5 79.6 c-2.5 -2.5 -2.6 -2.9 -2.3 -13.3 l0.3 -10.8 46 0 46 0 0.3 10.8 c0.3 10.3 0.2 10.8 -2.2 13.2 -2.4 2.4 -2.9 2.5 -16.5 2.5 -7.7 0 -15.1 -0.4 -16.4 -0.9 -3.3 -1.3 -4.7 -5.8 -4.7 -14.8 l0 -7.4 -6.2 0.3 -6.3 0.3 -0.5 9.2 c-0.7 13 -0.3 12.7 -19.5 13.1 -15.4 0.3 -15.5 0.3 -18 -2.2z m30.8 -2.2 c1.4 -0.5 1.7 -2.1 1.7 -9.5 l0 -9 -15.2 0.3 -15.3 0.3 -0.3 8 c-0.2 6.4 0 8.2 1.3 9.1 1.7 1.3 24.9 2 27.8 0.8z m54.1 -0.7 c1.4 -1 1.6 -2.6 1.4 -9.2 l-0.3 -8 -15.2 -0.3 -15.3 -0.3 0 9 c0 6.2 0.4 9.1 1.3 9.4 2.8 1.2 26.3 0.7 28.1 -0.6z"/>
 </g>
</svg>