<?xml version="1.0" encoding="utf-8"?>
<!DOCTYPE svg PUBLIC "-//W3C//DTD SVG 1.0//EN" "http://www.w3.org/TR/2001/REC-SVG-20010904/DTD/svg10.dtd">
<svg version="1.0" xmlns="http://www.w3.org/2000/svg" width="180px" height="180px" viewBox="0 0 180 180" preserveAspectRatio="xMidYMid meet">
 <g fill="#fccd6b">
  <path d="M7.1 158.1 c-1.3 -0.3 -3.4 -1.9 -4.5 -3.4 -2.1 -2.8 -2.1 -3.9 -2.4 -54.3 -0.2 -34.4 0.1 -52.8 0.8 -55.4 0.6 -2.4 2.1 -4.7 3.6 -5.6 2.4 -1.6 2.6 -1.6 5.2 0.8 3.5 3.2 59 50.9 65.9 56.6 l5.3 4.4 5.2 -4.4 c2.9 -2.4 12.6 -10.7 21.7 -18.5 16.1 -13.9 16.6 -14.3 21.1 -14.3 3.7 0 5.1 0.5 7.1 2.6 5.6 6 12.6 7.7 24.4 5.9 4.1 -0.6 4.8 -0.5 3.8 0.6 -1 1 -1.3 10.3 -1.3 39.6 0 42.4 -0.1 43.1 -6.1 45.2 -3.5 1.2 -145.5 1.4 -149.8 0.2z"/>
 </g>
 <g fill="#ffe086">
  <path d="M73 100.3 c-3.6 -3.1 -20.6 -17.8 -37.8 -32.6 -17.1 -14.8 -31.2 -27.2 -31.2 -27.7 0 -2.6 8.3 -3 64.4 -3 45.2 0 58.5 -0.3 59.5 -1.2 1.1 -1.1 1.2 -0.4 0.6 4.2 -1.4 9.7 -1.1 13.3 1.8 19.1 2.8 5.9 3.8 11.4 1.5 9.1 -2.8 -2.8 -1.5 -3.7 -44.5 33.3 -2.8 2.5 -5.8 4.5 -6.5 4.4 -0.7 0 -4.2 -2.6 -7.8 -5.6z"/>
 </g>
 <g fill="#fe636f">
  <path d="M144 76.1 c-4.9 -1.5 -8.6 -4 -12.7 -8.4 -5.4 -5.8 -7.7 -12.9 -7 -21.4 1.2 -15.6 17.4 -27.7 32.8 -24.4 14 3 19.7 11.8 18.7 28.9 -0.7 12 -6.3 21 -15.5 24.9 -3.5 1.4 -12.2 1.6 -16.3 0.4z"/>
 </g>
 <g fill="#fd4654">
  <path d="M152 76.2 c0 -0.4 1.8 -1.5 3.9 -2.4 20 -8.7 22.8 -35.9 4.9 -48.8 -4.6 -3.4 -3.3 -3.9 2.7 -1.1 5.3 2.5 10.1 7.3 13.3 13.6 2 3.9 2.5 6.4 2.5 11.5 0 10.9 -5.9 19.7 -16.7 25.4 -4.6 2.5 -10.6 3.5 -10.6 1.8z"/>
 </g>
 <g fill="#f8f6f9">
  <path d="M146.3 62.3 c-2.1 -0.8 -1.5 -4.4 0.7 -5 1.7 -0.5 2 -1.4 2 -6.3 0 -4.9 -0.3 -5.8 -1.7 -5.6 -3 0.2 -2.6 -3.6 0.7 -7.1 5.5 -5.8 7 -3.9 7 8.8 0 8.8 0.2 9.7 2 10.2 2.4 0.6 2.7 4.2 0.4 5.1 -1.8 0.7 -9.3 0.7 -11.1 -0.1z"/>
 </g>
</svg>