<svg width="44" height="44" viewBox="0 0 44 44" fill="none" xmlns="http://www.w3.org/2000/svg">
<path d="M20.5714 14.9286C20.5714 17.1286 18.8429 18.8571 16.6429 18.8571C14.4429 18.8571 12.7143 17.1286 12.7143 14.9286C12.7143 12.7286 14.4429 11 16.6429 11C18.8429 11 20.5714 12.7286 20.5714 14.9286ZM20.5714 19.6429L20.1786 20.9C19.9429 21.5286 19.3929 22 18.6857 22H14.6C13.8929 22 13.3429 21.5286 13.1071 20.9L12.7143 19.6429C11.3 19.6429 10.1214 20.5857 9.88571 21.9214L8 30.6429H25.2857L23.4 22C23.1643 20.5857 21.9071 19.6429 20.5714 19.6429Z" fill="#D1D0D0"/>
<path d="M31.216 19.1429H30.8484L30.7387 19.4937L30.3503 20.7366C30.1711 21.2021 29.7862 21.5 29.3302 21.5H25.2445C24.7886 21.5 24.4037 21.2021 24.2244 20.7366L23.8361 19.4937L23.7264 19.1429H23.3588C21.7237 19.1429 20.3246 20.2377 20.0396 21.8247L18.1558 30.5372L18.0249 31.1429H18.6445H35.9302H36.5511L36.4188 30.5363L34.5356 21.9051C34.251 20.237 32.7714 19.1429 31.216 19.1429ZM27.2874 19.3571C29.7635 19.3571 31.716 17.4047 31.716 14.9286C31.716 12.4524 29.7635 10.5 27.2874 10.5C24.8112 10.5 22.8588 12.4524 22.8588 14.9286C22.8588 17.4047 24.8112 19.3571 27.2874 19.3571Z" fill="#D1D0D0" stroke="white"/>
</svg>
