<svg width="27" height="24" viewBox="0 0 27 24" fill="none" xmlns="http://www.w3.org/2000/svg">
<path d="M14.7883 9.53101C14.1171 9.53101 13.5971 10.0511 13.5971 10.6932C13.5971 11.3353 14.1171 11.8553 14.7883 11.8553C15.4013 11.8553 15.9214 11.3353 15.9214 10.6932C15.9214 10.0511 15.4013 9.53101 14.7883 9.53101ZM6.65313 9.53101C5.98198 9.53101 5.46191 10.0511 5.46191 10.6932C5.46191 11.3353 5.98198 11.8553 6.65313 11.8553C7.26617 11.8553 7.78624 11.3353 7.78624 10.6932C7.78624 10.0511 7.26617 9.53101 6.65313 9.53101Z" fill="#2A2A2A"/>
<path d="M24.1145 7.32294C22.717 5.40537 20.7646 4.12408 18.6233 3.5459V3.54881C18.1265 2.99678 17.5657 2.48833 16.9382 2.03509C12.182 -1.42235 5.50537 -0.367687 2.0334 4.38847C-0.764511 8.25267 -0.645389 13.4504 2.20773 17.1432L2.23097 20.9958C2.23097 21.0888 2.2455 21.1818 2.27455 21.2689C2.42854 21.7599 2.95151 22.0301 3.43962 21.8761L7.11787 20.7169C8.09118 21.0626 9.09646 21.2602 10.0959 21.3154L10.0814 21.327C12.6701 23.2126 16.0636 23.7792 19.1753 22.7507L22.8681 23.9535C22.9611 23.9826 23.057 24 23.1557 24C23.67 24 24.0855 23.5845 24.0855 23.0703V19.177C26.6451 15.7021 26.712 10.8995 24.1145 7.32294ZM7.52463 18.654L7.17598 18.5088L4.29962 19.4095L4.27057 16.3878L4.03813 16.1263C1.58016 13.1279 1.41745 8.8076 3.71854 5.6378C6.51936 1.79684 11.8886 0.948464 15.7179 3.72023C19.5588 6.51233 20.4101 11.8728 17.6355 15.6905C15.3082 18.8836 11.1419 20.0632 7.52463 18.654ZM22.197 18.1601L21.9645 18.4507L21.9936 21.4723L19.1463 20.5135L18.7976 20.6588C17.1706 21.2631 15.4361 21.3125 13.8294 20.8622L13.8236 20.8593C15.9707 20.1997 17.9173 18.8632 19.3206 16.9398C21.5403 13.8805 21.9006 10.0366 20.6106 6.75929L20.628 6.77091C21.2963 7.2503 21.9093 7.84882 22.4294 8.57226C24.5387 11.4661 24.4196 15.4058 22.197 18.1601Z" fill="#2A2A2A"/>
<path d="M10.7215 9.53076C10.0503 9.53076 9.53027 10.0508 9.53027 10.6929C9.53027 11.335 10.0503 11.8551 10.7215 11.8551C11.3345 11.8551 11.8546 11.335 11.8546 10.6929C11.8546 10.0508 11.3345 9.53076 10.7215 9.53076Z" fill="#2A2A2A"/>
</svg>
