<svg xmlns="http://www.w3.org/2000/svg" width="21" height="21" viewBox="0 0 21 21" fill="none">
  <path d="M10.3873 17.6875C9.42315 17.6355 8.53758 17.4273 7.54847 17.0221C5.22386 16.0705 3.12422 14.0446 1.92442 11.6024C1.74588 11.2344 1.73874 11.2084 1.7566 10.9891C1.77088 10.7958 1.80659 10.688 1.99227 10.3311C3.00281 8.38331 4.69538 6.59905 6.54864 5.54336C8.4626 4.45422 10.5694 4.11595 12.6547 4.57317C15.5614 5.20881 18.3109 7.48375 19.7785 10.4724C19.9571 10.8404 19.9642 10.8664 19.9464 11.0857C19.9321 11.279 19.8964 11.3868 19.7107 11.7437C19.4322 12.2827 18.9822 12.9815 18.5787 13.5094C18.1752 14.0372 17.229 15.0223 16.7255 15.4386C14.7687 17.0556 12.6512 17.8065 10.3873 17.6875ZM11.812 16.1858C13.1975 15.9962 14.4616 15.4349 15.6864 14.4647C16.1149 14.1264 17.1004 13.1153 17.4218 12.6804C17.7896 12.1897 18.0824 11.7548 18.2931 11.3794L18.4895 11.0374L18.2502 10.6248C17.2468 8.90744 15.8113 7.48747 14.2509 6.67339C13.1618 6.10466 12.0834 5.83702 10.8836 5.8333C9.64097 5.8333 8.56258 6.09351 7.46634 6.66224C6.58434 7.11946 5.88446 7.65474 5.0846 8.49111C4.37401 9.22712 3.86338 9.89994 3.40989 10.6954L3.21349 11.0374L3.45274 11.45C4.2776 12.8663 5.48096 14.1636 6.71289 14.9702C7.6663 15.5947 8.76255 16.0222 9.81594 16.182C10.2801 16.2527 11.3157 16.2564 11.812 16.1858Z" fill="#E4BF44"/>
  <path d="M10.2156 14.6766C9.54432 14.5539 8.73375 14.0967 8.28025 13.58C7.88746 13.1414 7.5768 12.5652 7.41611 11.9853C7.3447 11.7251 7.33398 11.6062 7.33398 11.0374C7.33398 10.4687 7.3447 10.3498 7.41611 10.0895C7.71249 9.02642 8.39809 8.17146 9.33364 7.70681C9.89783 7.42802 10.1299 7.37598 10.8512 7.37598C11.3976 7.37598 11.5118 7.38713 11.7618 7.46147C12.7831 7.77 13.6043 8.48371 14.0507 9.45762C14.3185 10.0449 14.3685 10.2866 14.3685 11.0374C14.3685 11.7883 14.3185 12.0299 14.0507 12.6173C13.6936 13.3979 13.0973 14.0149 12.3438 14.3829C11.8404 14.6283 11.5868 14.684 10.9584 14.6989C10.6548 14.7063 10.3192 14.6989 10.2156 14.6766ZM11.4011 13.2083C12.1225 13.015 12.7509 12.3608 12.9366 11.6099C13.0116 11.3125 13.0116 10.7624 12.9366 10.465C12.8473 10.1007 12.6474 9.74756 12.3688 9.45762C11.9439 9.01155 11.4619 8.80711 10.8512 8.80711C10.6656 8.80711 10.4263 8.83313 10.3013 8.86658C9.58003 9.05988 8.95157 9.71411 8.76588 10.465C8.6909 10.7624 8.6909 11.3125 8.76588 11.6099C8.948 12.3459 9.55146 12.9853 10.2621 13.1971C10.5442 13.2826 11.1048 13.2864 11.4011 13.2083Z" fill="#E4BF44"/>
</svg>