<svg width="11" height="13" viewBox="0 0 11 13" fill="none" xmlns="http://www.w3.org/2000/svg">
<path d="M9.39583 1.56897C8.3875 0.582759 7.0125 0 5.5 0C3.9875 0 2.6125 0.582759 1.60417 1.56897C0.595833 2.55517 0 3.9 0 5.37931C0 6.85862 0.595833 8.20345 1.60417 9.18966L5.5 13L9.39583 9.18966C10.4042 8.20345 11 6.85862 11 5.37931C11 3.9 10.4042 2.55517 9.39583 1.56897ZM5.5 6.72414C4.72083 6.72414 4.125 6.14138 4.125 5.37931C4.125 4.61724 4.72083 4.03448 5.5 4.03448C6.27917 4.03448 6.875 4.61724 6.875 5.37931C6.875 6.14138 6.27917 6.72414 5.5 6.72414Z" fill="#D1D0D0"/>
</svg>
