<svg width="38" height="38" viewBox="0 0 38 38" fill="none" xmlns="http://www.w3.org/2000/svg">
<circle cx="19" cy="19" r="19" fill="black" fill-opacity="0.61"/>
<g clip-path="url(#clip0_1496_14860)">
<path d="M16.0187 29.195C15.683 29.111 15.4832 28.8593 15.4832 28.5236C15.4832 28.3038 15.5791 28.1199 15.7749 27.9761C15.8828 27.8961 15.9428 27.8921 17.1057 27.8802L18.3206 27.8682V26.953V26.0418L18.2127 26.0178C18.1488 26.0058 18.0209 25.9859 17.921 25.9739C17.4214 25.9019 16.6062 25.6382 16.1186 25.3944C15.631 25.1466 15.0476 24.755 14.7319 24.4592L14.604 24.3394L12.9934 25.9419C11.6227 27.3127 11.3629 27.5525 11.227 27.5884C10.7315 27.7163 10.2839 27.2687 10.4117 26.7732C10.4477 26.6373 10.6915 26.3775 12.0703 24.9948C12.9575 24.1036 13.6848 23.3642 13.6848 23.3482C13.6848 23.3363 13.5969 23.1804 13.489 23.0086C13.1093 22.3971 12.8775 21.8576 12.7057 21.1982C12.5298 20.5148 12.5178 20.3909 12.4979 18.5286C12.4779 16.7342 12.4779 16.7222 12.5658 16.5424C12.8376 15.9869 13.6368 16.0708 13.8047 16.6743C13.8287 16.7662 13.8447 17.4456 13.8447 18.4207C13.8447 20.2191 13.8686 20.4828 14.1084 21.1982C14.2443 21.6058 14.592 22.3212 14.6679 22.3451C14.6879 22.3531 14.8917 22.1693 15.1195 21.9415L15.5351 21.5219L15.4112 21.2501C15.2474 20.8865 15.1315 20.5148 15.0795 20.1991C15.0556 20.0352 15.0436 18.5046 15.0516 15.9829L15.0636 12.0265L15.1555 11.7307C15.5111 10.5718 16.2665 9.67658 17.3015 9.18502C17.933 8.8853 18.1927 8.82935 19 8.82935C19.8073 8.82935 20.067 8.8853 20.6985 9.18502C21.7335 9.68058 22.5048 10.5918 22.8405 11.7307C22.9165 11.9905 22.9285 12.1464 22.9444 13.0375C22.9564 13.5891 22.9764 14.0446 22.9884 14.0446C23.0044 14.0446 23.8236 13.2374 24.8148 12.2503C26.3574 10.7116 26.6371 10.4479 26.773 10.4119C27.2685 10.284 27.7161 10.7316 27.5882 11.2272C27.5523 11.3671 27.2326 11.6988 25.2623 13.677L22.9764 15.9629L22.9564 18.113L22.9325 20.259L22.8285 20.5987C22.6047 21.3141 22.281 21.8656 21.8015 22.3451C21.2979 22.8487 20.7584 23.1684 20.059 23.3802C19.7273 23.4841 19.6474 23.4921 19 23.4921C18.3566 23.4921 18.2727 23.4841 17.941 23.3842C17.4774 23.2443 16.9898 23.0046 16.6541 22.7528L16.3904 22.549L15.9667 22.9766L15.5431 23.4002L15.683 23.5201C16.2705 24.0236 17.1457 24.4393 18.0009 24.6231C18.4765 24.723 19.5235 24.723 19.9991 24.6231C21.0182 24.4073 21.8574 23.9637 22.5808 23.2683C23.1922 22.6768 23.6238 21.9935 23.8916 21.1982C24.1314 20.4868 24.1553 20.2191 24.1553 18.4207C24.1553 17.4456 24.1713 16.7662 24.1953 16.6743C24.3632 16.0708 25.1624 15.9869 25.4342 16.5424C25.5221 16.7222 25.5221 16.7342 25.5021 18.5286C25.4822 20.3909 25.4702 20.5148 25.2943 21.1982C24.8267 23.0046 23.5759 24.5352 21.8814 25.3944C21.3938 25.6382 20.5786 25.9019 20.079 25.9739C19.9791 25.9859 19.8512 26.0058 19.7913 26.0178L19.6794 26.0418V26.953V27.8682L20.8943 27.8802C22.0572 27.8921 22.1172 27.8961 22.2251 27.9761C22.6367 28.2798 22.6127 28.8713 22.1811 29.115L22.0173 29.211L19.0799 29.2189C17.4654 29.2229 16.0866 29.211 16.0187 29.195ZM19.6594 22.0894C19.7913 22.0574 20.0351 21.9655 20.1989 21.8856C20.6185 21.6817 21.1221 21.1782 21.3259 20.7586C21.5977 20.2031 21.6096 20.1272 21.6256 18.6405L21.6416 17.3017L19.4916 19.4478C17.4414 21.4979 17.3455 21.5978 17.4214 21.6578C17.6013 21.7976 17.9969 21.9935 18.2207 22.0614C18.7123 22.2013 19.1678 22.2133 19.6594 22.0894ZM19.1119 17.9491L21.6416 15.4154L21.6256 13.8608C21.6096 12.1464 21.6056 12.1184 21.3419 11.5869C21.0781 11.0633 20.6785 10.6677 20.139 10.4079C19.7193 10.2081 19.4636 10.1522 19 10.1522C18.5364 10.1522 18.2806 10.2081 17.861 10.4079C17.3055 10.6757 16.9099 11.0713 16.6421 11.6268C16.3704 12.1943 16.3824 11.9945 16.3824 16.1627C16.3824 19.7235 16.3864 19.9553 16.4583 20.2111C16.4983 20.3589 16.5422 20.4788 16.5582 20.4788C16.5702 20.4788 17.7212 19.3399 19.1119 17.9491Z" fill="#E4BF44"/>
</g>
<defs>
<clipPath id="clip0_1496_14860">
<rect width="20.4615" height="20.4615" fill="white" transform="translate(8.76904 8.76929)"/>
</clipPath>
</defs>
</svg>
