<svg width="51" height="58" viewBox="0 0 51 58" fill="none" xmlns="http://www.w3.org/2000/svg">
<path d="M6.87793 18.6216C6.87793 28.8635 15.2576 37.2432 25.4995 37.2432C35.7414 37.2432 44.1211 28.8635 44.1211 18.6216C44.1211 8.37972 35.7414 0 25.4995 0C15.2576 0 6.87793 8.37972 6.87793 18.6216ZM39.7396 18.6216C39.7396 26.4536 33.3316 32.8616 25.4995 32.8616C17.6675 32.8616 11.2595 26.4536 11.2595 18.6216C11.2595 10.7896 17.6675 4.38155 25.4995 4.38155C33.3316 4.38155 39.7396 10.7896 39.7396 18.6216Z" fill="#E4BF44"/>
<path d="M3.81131 57.2485C9.61687 51.4429 17.2846 48.2663 25.5 48.2663C33.7154 48.2663 41.3831 51.4429 47.1887 57.2485L50.3105 54.1266C43.6834 47.5543 34.8656 43.8848 25.5 43.8848C16.1344 43.8848 7.31655 47.5543 0.689453 54.1266L3.81131 57.2485Z" fill="#E4BF44"/>
</svg>
