<svg width="52" height="52" viewBox="0 0 52 52" fill="none" xmlns="http://www.w3.org/2000/svg">
<circle cx="26" cy="26" r="26" fill="#343434"/>
<path d="M14.2477 37.6703C13.2578 37.4023 12.4539 36.5984 12.1258 35.5375C12.0328 35.2312 12.0273 34.8484 12.0273 28.1875C12.0273 21.5211 12.0328 21.1438 12.1258 20.832C12.4047 19.9352 12.9406 19.3008 13.7445 18.918C14.2859 18.6555 14.5867 18.6172 16.1836 18.6172L17.6602 18.6117L18.8906 16.55C19.8203 15.0023 20.1703 14.4609 20.307 14.368L20.493 14.2422H26H31.507L31.693 14.368C31.8297 14.4609 32.1797 15.0023 33.1094 16.55L34.3398 18.6117L35.8164 18.6172C36.9375 18.6172 37.375 18.6391 37.643 18.6992C38.7094 18.9508 39.5406 19.7492 39.8742 20.832C39.9672 21.1438 39.9727 21.5211 39.9727 28.1875C39.9727 34.8484 39.9672 35.2312 39.8742 35.5375C39.5406 36.6094 38.7367 37.4133 37.7305 37.6758C37.4461 37.7469 36.0734 37.7578 25.9727 37.7523C16.1727 37.7523 14.4992 37.7414 14.2477 37.6703ZM37.4406 36.1062C37.7195 36.0242 38.1023 35.6852 38.2445 35.3898C38.3594 35.1547 38.3594 35.1328 38.3594 28.2094V21.2695L38.2281 20.9906C38.157 20.8375 38.0039 20.6352 37.8891 20.5422C37.5008 20.2195 37.3695 20.2031 35.4664 20.2031C33.8969 20.2031 33.7164 20.1922 33.5469 20.1047C33.3828 20.0172 33.1641 19.6836 32.0977 17.9172L30.8398 15.8281H26H21.1602L19.9023 17.9172C18.8359 19.6836 18.6172 20.0172 18.4531 20.1047C18.2836 20.1922 18.1031 20.2031 16.5336 20.2031C14.6305 20.2031 14.4992 20.2195 14.1109 20.5422C13.9961 20.6352 13.843 20.8375 13.7719 20.9906L13.6406 21.2695V28.2094C13.6406 35.1328 13.6406 35.1547 13.7555 35.3898C13.8867 35.6633 14.275 36.0242 14.5266 36.1008C14.8 36.1883 37.1508 36.1937 37.4406 36.1062Z" fill="#E4BF44"/>
<path d="M25.1525 32.8851C23.8127 32.6937 22.522 32.0101 21.5595 30.9874L21.1439 30.539L21.0783 30.8288C20.947 31.3757 20.6791 31.6327 20.2197 31.6327C19.9845 31.6327 19.6947 31.4796 19.6017 31.2991C19.4267 30.982 19.4322 30.8781 19.7166 29.6202C19.8642 28.9421 20.0283 28.3023 20.072 28.2038C20.1869 27.9687 20.4603 27.8046 20.7337 27.8046C21.0509 27.8046 23.2877 28.3187 23.4572 28.4281C24.1572 28.8874 23.747 29.9593 22.9103 29.8554L22.6369 29.8226L22.8556 30.0468C23.3587 30.5718 24.0916 30.9874 24.8791 31.2007C25.2127 31.2937 25.4806 31.321 26.0002 31.321C26.8369 31.3265 27.2251 31.239 28.0181 30.8562C28.5267 30.6101 28.647 30.5281 29.1119 30.0523C29.6751 29.489 29.8884 29.1718 30.1837 28.4609C30.2877 28.2093 30.4298 27.9468 30.4955 27.8757C30.6705 27.6898 30.9822 27.6077 31.2392 27.6843C31.7697 27.8429 31.9228 28.3406 31.6603 29.0351C30.6759 31.6437 27.9087 33.2788 25.1525 32.8851Z" fill="#E4BF44"/>
<path d="M20.6076 26.0054C20.1427 25.7211 20.0826 25.3328 20.3943 24.5836C20.6896 23.8726 21.0998 23.2547 21.6795 22.6586C23.4513 20.8429 26.0435 20.3234 28.3896 21.3132C29.0787 21.6031 29.7349 22.0625 30.331 22.6695C30.8506 23.1945 30.867 23.2054 30.8998 23.0578C31.0037 22.5875 31.0474 22.5 31.2224 22.3414C31.4466 22.1445 31.6216 22.0898 31.8787 22.1336C32.2013 22.1882 32.431 22.4125 32.5131 22.757C32.5623 22.9757 32.0318 25.4203 31.8896 25.639C31.7638 25.8304 31.5013 25.9562 31.2279 25.9507C31.1076 25.9507 30.4677 25.8304 29.806 25.6828C28.6631 25.4203 28.6029 25.3984 28.417 25.2179C28.2529 25.0539 28.2201 24.9773 28.2037 24.7312C28.1873 24.507 28.2091 24.4031 28.2966 24.2609C28.4498 24.0093 28.8162 23.8507 29.1279 23.9L29.3631 23.9382L29.117 23.6812C28.6302 23.1726 27.8865 22.757 27.0662 22.5437C26.4646 22.3797 25.4966 22.3851 24.8787 22.5492C23.424 22.9375 22.2591 24.0039 21.7834 25.3929C21.5701 26.0109 21.056 26.2789 20.6076 26.0054Z" fill="#E4BF44"/>
</svg>
