<svg width="24" height="24" viewBox="0 0 24 24" fill="none" xmlns="http://www.w3.org/2000/svg">
<path d="M18.1195 23.9483C17.1633 23.8733 16.3852 23.5968 15.5367 23.0343L15.1523 22.7812L14.6461 22.8327C13.2023 22.9687 10.0242 22.9687 8.29922 22.828C7.14609 22.7343 5.73047 22.5562 5.17734 22.4296C3.18516 21.9749 1.35703 20.2827 0.686719 18.2812C0.447656 17.564 0.217969 15.8765 0.0960937 13.9358C0.0304687 12.8999 0.0304687 10.0687 0.0960937 9.03271C0.217969 7.09678 0.447656 5.41397 0.686719 4.6874C1.29609 2.86397 2.86641 1.29365 4.68984 0.684277C5.41641 0.445215 7.09922 0.215527 9.04453 0.0936523C10.0805 0.0280273 12.907 0.0280273 13.9477 0.0936523C15.8555 0.21084 17.5664 0.445215 18.2836 0.684277C20.1211 1.29834 21.6773 2.85459 22.2867 4.6874C22.4977 5.32959 22.6992 6.65615 22.8305 8.29678C22.9664 9.99834 22.9664 13.214 22.8352 14.6437L22.7836 15.1499L23.0414 15.539C23.7445 16.5937 24.0445 17.7421 23.9461 19.0218C23.8055 20.9249 22.6148 22.6265 20.8383 23.4655C20.3273 23.7093 19.6336 23.8968 19.1273 23.9343C18.9352 23.9483 18.7242 23.9624 18.6586 23.9718C18.593 23.9765 18.3539 23.9671 18.1195 23.9483ZM19.3664 22.153C20.5758 21.8952 21.6164 20.9624 22.0523 19.7437C22.193 19.3499 22.1977 19.3077 22.1977 18.5858C22.1977 17.7233 22.1555 17.5312 21.8086 16.8515C21.5133 16.2749 20.8758 15.628 20.3227 15.3421C19.7367 15.0421 19.3758 14.9483 18.7289 14.9202C17.5992 14.8733 16.7789 15.1921 15.9867 15.9843C15.2367 16.7343 14.9133 17.5265 14.9086 18.5905C14.9086 19.1905 15.0211 19.6546 15.3164 20.2499C15.4992 20.6296 15.5977 20.7608 15.982 21.1405C16.3477 21.5062 16.5117 21.6327 16.8633 21.8108C17.0977 21.9327 17.4586 22.0733 17.6602 22.1202C18.1055 22.2327 18.9211 22.2468 19.3664 22.153ZM13.493 21.1593C13.6945 21.1405 13.7836 21.1171 13.7648 21.0796C13.6008 20.7187 13.3898 20.1421 13.3102 19.8468C13.1695 19.3124 13.1367 18.2155 13.2398 17.6483C13.3805 16.8843 13.657 16.1952 14.0883 15.539C14.332 15.164 15.1852 14.3155 15.5648 14.0671C16.5727 13.4108 17.5898 13.1343 18.8133 13.1858C19.6477 13.2187 20.2008 13.3593 21.0773 13.7624C21.1711 13.8046 21.1992 13.3218 21.1992 11.5874C21.1992 9.42647 21.1008 7.92178 20.857 6.2624C20.6742 5.02022 20.3742 4.35928 19.6242 3.57178C19.2023 3.13115 18.8555 2.85928 18.3633 2.60146C17.857 2.33428 17.5008 2.23115 16.6852 2.11396C14.993 1.87021 13.5867 1.78115 11.4867 1.78115C9.39609 1.78115 7.90078 1.8749 6.28359 2.11396C5.03203 2.29678 4.35703 2.60615 3.56953 3.35146C2.99297 3.8999 2.57109 4.52803 2.34609 5.18428C2.16328 5.6999 1.93828 7.4249 1.83047 9.11709C1.76953 10.0827 1.76953 12.8858 1.83047 13.8515C1.93359 15.4733 2.13516 17.0671 2.30391 17.6483C2.63203 18.7499 3.58359 19.8608 4.66641 20.4046C5.28047 20.7093 5.94609 20.8499 7.59609 21.0187C9.29766 21.1968 12.2836 21.2671 13.493 21.1593Z" fill="#2A2A2A"/>
<path d="M18.2414 21.3327C17.8992 21.2905 17.7445 21.1218 17.6976 20.728C17.6554 20.3577 17.7117 19.9499 17.8242 19.8046C17.9367 19.6593 18.1757 19.5936 18.5882 19.5983C18.9914 19.5983 19.207 19.6686 19.3335 19.8421C19.4179 19.9593 19.432 20.0436 19.432 20.4749C19.432 21.178 19.3382 21.2952 18.7523 21.3421C18.6117 21.3515 18.382 21.3468 18.2414 21.3327Z" fill="#2A2A2A"/>
<path d="M18.2109 18.9092C17.7563 18.6607 17.7188 18.5482 17.7188 17.3623C17.7188 16.4482 17.7234 16.3873 17.8219 16.2092C18.1453 15.6373 18.9891 15.6467 19.3125 16.2185C19.425 16.4248 19.4297 16.4529 19.4297 17.3904C19.4297 18.4732 19.4156 18.5295 19.0641 18.8107C18.8484 18.9888 18.4406 19.0357 18.2109 18.9092Z" fill="#2A2A2A"/>
<path d="M5.46703 13.2421C4.98421 13.0733 4.75453 12.5671 4.94671 12.1077C5.04046 11.8827 5.1389 11.7749 5.35453 11.6671C5.52796 11.578 5.66859 11.578 9.20296 11.5874L12.878 11.6015L13.0467 11.7327C13.3702 11.9765 13.492 12.4077 13.342 12.764C13.2623 12.9655 12.9858 13.1999 12.7655 13.2608C12.6483 13.2937 11.4014 13.3124 9.11859 13.3124C6.29671 13.3077 5.61703 13.2983 5.46703 13.2421Z" fill="#2A2A2A"/>
<path d="M5.37025 7.65464C5.15463 7.54214 5.06088 7.4437 4.96713 7.24214C4.864 7.01714 4.85463 6.75464 4.94369 6.54839C5.02338 6.34683 5.29994 6.11245 5.52025 6.05151C5.77806 5.9812 17.2062 5.9812 17.464 6.05151C17.7124 6.12183 17.9796 6.3937 18.0499 6.6562C18.1577 7.04526 17.9656 7.46714 17.6046 7.64058C17.4124 7.73433 17.314 7.73433 11.4593 7.73433C6.12494 7.72964 5.49681 7.72495 5.37025 7.65464Z" fill="#2A2A2A"/>
</svg>
