<svg width="208" height="208" viewBox="0 0 208 208" fill="none" xmlns="http://www.w3.org/2000/svg">
<g clip-path="url(#clip0_2600_492)">
<path d="M83.8 198.3C82.8 198.1 82 197.2 82 196.4C82 195.2 85.6 195 104 195C122.1 195 126 195.2 126 196.4C126 197.1 125 198 123.8 198.4C121.2 199.1 86.4 199 83.8 198.3Z" fill="#32363D"/>
<path d="M5.6 196.1C2.1 193.8 0.1 190.5 0 187C0 183.8 11.1 157.8 12.8 157.2C14.6 156.6 14.3 163.5 12.5 165.4C11.7 166.2 11 167.8 11 168.9C11 170 10.3 171.5 9.5 172.4C8.7 173.2 8 174.8 8 175.9C8 177.1 7.4 178 6.6 178C4.5 178 3.4 189.1 5.5 190.2C6.3 190.7 7 191.8 7 192.5C7 193.4 8 194 9.5 194C11.3 194 12 194.5 12 196C12 198.6 9.4 198.6 5.6 196.1Z" fill="#32363D"/>
<path d="M196 196C196 194.5 196.7 194 198.5 194C200.1 194 201 193.4 201 192.5C201 191.7 201.5 191 202 191C202.6 191 203 190.4 203 189.6C203 188 206.7 186.4 207.8 187.4C208.9 188.6 205 194.6 202 196.3C198.2 198.6 196 198.5 196 196Z" fill="#32363D"/>
<path d="M203 182.9C203 181.8 202.3 180.2 201.5 179.4C200.7 178.5 200 176.3 200 174.4C200 172 199.5 171 198.5 171C197.5 171 197 169.9 197 167.5C197 165.1 196.5 164 195.5 164C194.5 164 194 162.9 194 160.5C194 158.1 193.5 157 192.5 157C191.4 157 191 155.9 191 153.4C191 151.1 191.4 150 192.2 150.2C193.2 150.6 200.2 165.8 206.1 180.3L208 185H205.5C203.6 185 203 184.5 203 182.9Z" fill="#32363D"/>
<path d="M22 143.7C22 142.9 23 142 24.3 141.6L26.5 141L24.2 139.5C21.8 137.7 19 133 19 130.5C19 129.7 19.9 129 21 129C22.2 129 23 129.7 23 130.8C23 131.7 24.6 133.6 26.5 135C29.5 137.1 30 138 29.8 141C29.5 144.3 29.3 144.5 25.8 144.8C23 145 22 144.7 22 143.7Z" fill="#32363D"/>
<path d="M172.8 144.3L166 143.9V140.8C166 138.7 166.8 137.1 168.6 135.7C174 131.5 174 131 174 78C174 35.1 174.2 29 175.5 29C176.3 29 177 29.6 177 30.4C177 31.2 178.5 32.3 180.4 33C182.2 33.6 184.8 35.2 186.1 36.6L188.5 39.2L188.8 85.3C189.1 134.5 189 135.3 184.2 139.1C181.6 141.1 181.6 141.1 183.8 141.7C187.3 142.6 186.5 145 182.8 144.8C181 144.7 176.5 144.5 172.8 144.3Z" fill="#32363D"/>
<path d="M70.7 130.3C70.3 130 70 128.1 70 126.3C70 123 70.1 122.9 73.8 123.2C77.3 123.5 77.5 123.7 77.8 127.3C78.1 130.9 78 131 74.7 131C72.9 131 71 130.7 70.7 130.3Z" fill="#32363D"/>
<path d="M19 42.5C19 39.2 24.4 33.3 28 32.5C29.7 32.1 31 31.2 31 30.4C31 29.6 31.5 29 32 29C32.6 29 33 30.6 33 32.5C33 35.3 32.6 36 31.1 36C30 36 28.8 36.5 28.5 37C28.2 37.6 27.1 38 26.1 38C24.8 38 24 39 23.6 41.5C23.1 44.1 22.4 45 21 45C19.5 45 19 44.3 19 42.5Z" fill="#32363D"/>
<path d="M31 13C31 12 31.9 10.6 32.9 9.99995C35.6 8.59995 172.4 8.59995 175.1 9.99995C177.6 11.4 177.6 15 175.1 15C174 15 172.8 14.6 172.5 14C171.6 12.6 36.4 12.6 35.5 14C34.4 15.8 31 15.1 31 13Z" fill="#32363D"/>
<path d="M7.50004 197C5.10004 196.1 1.60004 192.2 0.700038 189.8C0.200038 188.4 0.600038 188 2.50004 188C4.50004 188 5.00004 188.5 5.00004 190.5C5.00004 192.5 5.50004 193 7.50004 193C9.50004 193 10 193.5 10 195.5C10 196.9 9.90004 198 9.80004 197.9C9.60004 197.9 8.60004 197.5 7.50004 197Z" fill="#41494E"/>
<path d="M195 196.3C195 195 196.2 193.9 198.5 193C200.4 192.2 202 191.1 202 190.5C202 188.9 205.5 185 206.9 185C209.4 185 207 191.9 203.3 195.2C202.2 196.2 199.9 197.3 198.2 197.6C195.5 198.2 195 198 195 196.3Z" fill="#41494E"/>
<path d="M202 179.5C202 177.1 201.5 176 200.5 176C199.5 176 199 174.9 199 172.5C199 170.1 198.5 169 197.5 169C196.5 169 196 167.9 196 165.5C196 163.1 195.5 162 194.5 162C193.5 162 193 160.9 193 158.5C193 156.1 192.5 155 191.5 155C190.4 155 190 153.9 190 151.4C190 149.1 190.4 148 191.2 148.2C191.8 148.4 195.3 155.6 199 164.1C207.9 184.9 207.4 183 204.5 183C202.3 183 202 182.6 202 179.5Z" fill="#41494E"/>
<path d="M12.1 156.9C14.8 150 15.9 148 17 148C18.6 148 18.1 154.7 16.5 156.4C15.7 157.2 15 158.8 15 159.9C15 161.5 14.4 162 12.5 162H10L12.1 156.9Z" fill="#41494E"/>
<path d="M183 146C182.2 145.5 180.5 145 179.3 145C177.7 145 177 144.4 177 143C177 141.8 177.7 141 178.8 141C182.3 141 187.7 143.1 189.5 145C191.3 147 191.2 147 187.9 147C186 147 183.8 146.5 183 146Z" fill="#41494E"/>
<path d="M22.5 143.3C22.3 142.5 22.8 142 23.9 142C27.1 142 26.9 140.9 23.2 137.5L19.5 134.2L19.2 89.8C19 65.4 19.2 44 19.5 42.1C20.2 38.2 25.2 33 28.2 33C29.3 33 30.4 32.2 30.7 31C31 29.9 31.9 29 32.6 29C33.8 29 34 35 34 65V101H105.5H177V115.5C177 131.4 176.1 135.2 171.6 138.8L168.9 140.9L172.2 141.2C175.3 141.5 175.4 141.6 173.4 142.7C170.3 144.5 23.2 145 22.5 143.3ZM80.7 123.4C81.5 121.2 78.9 119.7 77.1 121.4C76.4 122.2 76.1 123.3 76.4 123.9C77.4 125.5 80 125.2 80.7 123.4ZM105.9 123.6C106.8 122.6 106.7 122 105.5 121C103.4 119.3 100.4 121.6 102.1 123.6C102.7 124.4 103.6 125 104 125C104.4 125 105.3 124.4 105.9 123.6ZM131.6 123.9C131.9 123.3 131.5 122.1 130.6 121.2C129.1 119.7 128.9 119.7 127.4 121.2C125.5 123.1 126.3 125 129 125C130 125 131.2 124.5 131.6 123.9Z" fill="#41494E"/>
<path d="M173 13C173 9.80002 173.9 9.30002 175.8 11.2C177.7 13.1 177.3 16 175 16C173.4 16 173 15.3 173 13Z" fill="#41494E"/>
<path d="M6.30005 196C1.00005 192.8 -2.29995 184 1.80005 184C3.10005 184 4.10005 185.3 5.00005 188C5.70005 190.2 6.90005 192 7.70005 192C8.40005 192 9.00005 192.5 9.00005 193C9.00005 193.6 9.90005 194 11 194C12.3 194 13 194.7 13 196C13 198.6 10.5 198.6 6.30005 196Z" fill="#5A656B"/>
<path d="M182 196.2C182 195.3 183.3 193.9 185 193.2C188 191.8 191 187.5 191 184.5C191 183.3 192.3 183 197.4 183C200.9 183 204.5 182.7 205.3 182.4C207.8 181.5 208.3 185.6 206.2 190.3C203.6 196.1 199.6 198 189.6 198C183 198 182 197.8 182 196.2Z" fill="#5A656B"/>
<path d="M1.70004 181.3C4.70004 173.2 10.8 160.6 11.8 160.2C13.6 159.6 13.3 166.5 11.5 168.4C10.7 169.2 10 170.5 10 171.3C10 173.9 8.80004 176 7.40004 176C6.50004 176 6.00004 177.2 6.00004 179.5C6.00004 182.6 5.70004 183 3.50004 183C1.60004 183 1.20004 182.6 1.70004 181.3Z" fill="#5A656B"/>
<path d="M201 177.5C201 175.1 200.5 174 199.5 174C198.5 174 198 172.9 198 170.5C198 168.1 197.5 167 196.5 167C195.5 167 195 165.9 195 163.5C195 161.1 194.5 160 193.5 160C192.5 160 192 158.9 192 156.5C192 154.2 191.5 153 190.6 153C188.9 153 188 150.8 188 146.7C188 143.6 188 143.6 189.9 145.5C191.5 147.2 194.9 154.5 204.7 177.8C206 180.9 206 181 203.5 181C201.3 181 201 180.6 201 177.5Z" fill="#5A656B"/>
<path d="M15 150.1C15 148.8 18.9 144.1 20.8 143.1C21.7 142.6 24.9 141.9 27.8 141.5C32.6 140.9 33 141 33 142.9C33 144.5 32.4 145 30.5 145C25.8 145 20 147.4 20 149.2C20 150.5 19.2 151 17.5 151C16.1 151 15 150.6 15 150.1Z" fill="#5A656B"/>
<path d="M165 143C165 141.2 165.7 141 171.8 141C179.8 141 183 141.8 183 143.6C183 144.7 181 145 174 145C165.7 145 165 144.9 165 143Z" fill="#5A656B"/>
<path d="M124.5 127.6C121.8 125.7 122.1 120.2 124.9 117.8C128 115.3 130.6 115.5 133.5 118.5C136.5 121.4 136.7 124.3 134 127C131.3 129.7 130 129.5 130 126.6C130 125.2 130.5 123.8 131 123.5C133 122.3 132 120 129.4 120C127 120 126.9 120.2 127.6 124.5C128.3 129.2 127.6 129.9 124.5 127.6Z" fill="#5A656B"/>
<path d="M103 127C103 125.4 103.7 125 106.7 125C110.2 125 110.3 125 108.5 127C107.5 128.1 105.9 129 104.8 129C103.7 129 103 128.3 103 127Z" fill="#2A51FF"/>
<path d="M98.2 120.8C98.7 117.4 103.2 115.5 106.8 117.2C110.1 118.8 111.2 123 108.3 123C107.2 123 105.9 122.5 105.2 121.8C104.3 120.9 103.7 120.9 102.8 121.8C102.1 122.5 100.8 123 99.7 123C98.4 123 97.9 122.4 98.2 120.8Z" fill="#2A51FF"/>
<path d="M161 57V10H168C173.8 10 175.1 10.3 176 11.9C176.6 13.2 177 29.8 177 58.9V104H169H161V57Z" fill="#2A51FF"/>
<path d="M31 24.2C31 13 31.7 10 34.2 10C34.6 10 35 15.8 35 23C35 35.3 34.9 36 33 36C31.1 36 31 35.3 31 24.2Z" fill="#2A51FF"/>
<path d="M6.99999 196.1C4.59999 194.9 2.89999 192.9 1.69999 189.9C-0.100011 185.5 -0.100011 185.5 2.39999 179.8C5.29999 173.2 6.99999 172.4 6.99999 177.5C6.99999 179.9 6.49999 181 5.49999 181C4.69999 181 3.99999 181.5 3.99999 182C3.99999 182.7 18.7 183 46 183H88V190.5V198H49.2C13.3 198 10.2 197.9 6.99999 196.1Z" fill="#728287"/>
<path d="M120 190.5V183H158.5C192.1 183 197 183.2 197 184.5C197 185.3 196.3 186 195.5 186C194.7 186 194 186.7 194 187.5C194 190.6 191 194.8 187.6 196.4C184.7 197.8 179.7 198 152.1 198H120V190.5Z" fill="#728287"/>
<path d="M203 182.5C203 180.1 202.5 179 201.5 179C200.5 179 200 177.9 200 175.5C200 173.1 199.5 172 198.5 172C197.5 172 197 170.9 197 168.5C197 166.1 196.5 165 195.5 165C194.5 165 194 163.9 194 161.5C194 159.2 193.5 158 192.6 158C191 158 190 155.9 190 152.4C190 151.1 189.5 150 188.9 150C187.2 150 185 147.3 185 145.1C185 143.9 185.5 143 186 143C189.3 143 192.9 150 206.7 182.8C208 185.9 208 186 205.5 186C203.3 186 203 185.6 203 182.5Z" fill="#728287"/>
<path d="M20 165.4C20 163.5 21 159.6 22.1 156.9L24.2 152H104.1H183.9L186 156.6C187.1 159.2 188 163 188 165.1V169H104H20V165.4Z" fill="#728287"/>
<path d="M11.9 157.7C14 152.2 17.3 146 18.1 146C18.6 146 19 147.6 19 149.5C19 151.9 18.5 153 17.5 153C16.5 153 16 154.1 16 156.5C16 159.6 15.7 160 13.5 160C11.4 160 11.2 159.7 11.9 157.7Z" fill="#728287"/>
<path d="M27 143.6C27 142.9 28 142 29.3 141.6C32.2 140.8 165.8 140.8 168.8 141.6C170 142 171 142.9 171 143.6C171 144.8 159.6 145 99 145C38.4 145 27 144.8 27 143.6Z" fill="#728287"/>
<path d="M131.6 123.5C131 121.2 130.6 121 127 121.6C124.8 122 123 122 123 121.7C123 119.8 124.6 117.7 126.6 116.9C131.4 115.1 136.5 119.4 135.2 124.2C134.5 126.8 132.3 126.4 131.6 123.5Z" fill="#728287"/>
<path d="M74.6 127.1C71.9 124.2 72.8 118.8 76.2 117.2C80.6 115.1 85 118 85 123.1C85 128.3 78.1 131 74.6 127.1Z" fill="#FF6523"/>
<path d="M99.7 127.2C96.1 123.2 98.8 117 104.2 117C109.5 117 112.1 124.4 107.8 127.4C104.8 129.5 101.7 129.4 99.7 127.2Z" fill="#2275FF"/>
<path d="M31.2 58.1C31.5 32.9 32.1 11.7 32.4 11.1C32.9 10.3 51.9999 10 98.5999 10H164V57V104H97.3999H30.7L31.2 58.1ZM125.8 88.4C134.8 87.7 135 87.6 135 85.2C135 83.7 133.7 81.5 131.5 79.5L128.1 76.2L111.4 75.5C90.2999 74.6 81.6999 75.1 78.1999 77.7C75.0999 79.9 71.5 86.4 72.5 88C73.2 89.1 111.1 89.4 125.8 88.4ZM107.8 55.5C114.7 52.6 119 46.9 119 40.7C119 34 110.6 26 103.5 26C95.4 26 86.9 36.6 89 44.1C90.2 48.2 95.1999 53.7 99.3999 55.6C103.4 57.3 103.4 57.3 107.8 55.5Z" fill="#2275FF"/>
<path d="M124.7 127.2C121 123.2 123.8 117 129.3 117C132.6 117 135 119.4 135 122.9C135 128.3 128.2 131.1 124.7 127.2Z" fill="#8CC951"/>
<path d="M0.700038 184.3C4.70004 173.9 15.8 149.6 16.8 149.2C17.6 149 18 149.9 18 151.8C18 155.8 17.1 158 15.4 158C14.5 158 14 159.2 14 161.5C14 163.9 13.5 165 12.5 165C11.5 165 11 166.1 11 168.5C11 170.9 10.5 172 9.50004 172C8.50004 172 8.00004 173.1 8.00004 175.5C8.00004 177.9 7.50004 179 6.50004 179C5.50004 179 5.00004 180.1 5.00004 182.5C5.00004 185.6 4.70004 186 2.50004 186C0.600038 186 0.200038 185.6 0.700038 184.3Z" fill="#83969B"/>
<path d="M191 184C191 182.2 191.7 182 196.5 182C201.7 182 202 181.9 202 179.5C202 178 201.4 177 200.6 177C199.2 177 198 174.9 198 172.3C198 171.5 197.3 170.2 196.5 169.4C195.7 168.5 195 167 195 165.9C195 164.8 194.3 163.2 193.5 162.4C191.6 160.5 191.4 153.6 193.2 154.2C194.5 154.7 206.9 182.3 207 184.8C207 185.6 204.7 186 199 186C191.7 186 191 185.8 191 184Z" fill="#83969B"/>
<path d="M19 166.1C19 163.9 19.7 161.5 20.5 160.6C21.3 159.8 22 158.5 22 157.6C22 156.8 22.5 154.9 23.2 153.5L24.3 151H104.1H183.9L186.1 155.8C187.3 158.4 188.5 162.6 188.7 165.3L189.3 170H104.1H19V166.1ZM185 165.1C185 164.6 184.1 162.2 183 159.6L180.9 155H104.1H27.2L25.1 159.9C24 162.6 23 165.1 23 165.4C23 165.7 59.5 166 104 166C149.5 166 185 165.6 185 165.1Z" fill="#83969B"/>
<path d="M186 147.5C186 146.6 185.1 146 183.5 146C181.7 146 181 145.5 181 144C181 142.8 181.7 142 182.6 142C184.8 142 189.4 144.9 190.8 147.1C191.9 148.8 191.7 149 189 149C187 149 186 148.5 186 147.5Z" fill="#83969B"/>
<path d="M17 147.1C17 146 20.9 143 22.2 143C22.7 143 23 144.1 23 145.5C23 147.6 22.5 148 20 148C18.4 148 17 147.6 17 147.1Z" fill="#83969B"/>
<path d="M69.7 91.3C68.4 90.1 69 83.5 70.8 80.1C73.9 74 76.8 72.6 88.1 72.2C93.6 71.9 105.5 72.1 114.6 72.5L131.1 73.2L134.5 76.5C137.7 79.4 138 80.3 138 85.2V90.7L128.8 91.4C116.8 92.2 70.5 92.2 69.7 91.3ZM122.6 85.3C122.2 83.7 120.4 81 118.5 79.3L115 76H98.4C80.2 76 77.8 76.6 74.6 82C71 88.1 70.5 88 98.1 88H123.2L122.6 85.3Z" fill="#10BEFF"/>
<path d="M95.5 57.9999C84 52.0999 81.7 37.0999 90.9 27.8999C104.2 14.5999 126.9 27.6999 122.1 45.7999C119 57.1999 105.8 63.1999 95.5 57.9999ZM105 52.3999C107.2 48.0999 107 33.4999 104.7 29.2999C103.1 26.2999 102.7 26.0999 100.2 27.0999C96.9 28.3999 92.3 32.5999 90.4 36.1999C88.6 39.6999 88.6 42.7999 90.5 46.3999C91.3 47.8999 92 49.6999 92 50.3999C92 51.5999 100.9 56.0999 102.5 55.5999C103.1 55.4999 104.2 53.9999 105 52.3999Z" fill="#10BEFF"/>
<path d="M70 86.4C70 81.1 72.1 77 76 74.6C78.3 73.3 82.1 73 98.4 73H118L121.7 76.3C124.9 79.3 125.4 80.4 125.8 85.3L126.2 91H98.1H70V86.4Z" fill="#08E2FF"/>
<path d="M98.5 58.8C90.5 56 85.8 49.3 85.8 41C85.9 31.2 93.8 23 103 23C107.3 23 109.3 27.4 109.8 38.2C110.4 51 107.6 60.1 103.1 59.9C102.2 59.9 100.2 59.4 98.5 58.8Z" fill="#08E2FF"/>
<path d="M85 192V186H43C10 186 1 185.7 1 184.8C1.1 182.4 12.7 156.6 13.8 156.2C14.6 156 15 157.1 15 159.4C15 161.4 14.6 163 14 163C13.5 163 13 164.1 13 165.4C13 166.8 12.3 168.5 11.5 169.4C10.7 170.2 10 171.8 10 172.9C10 174 9.3 175.5 8.5 176.4C7.7 177.2 7 178.8 7 179.9C7 182 7.3 182 47.8 182.2C93.5 182.5 187.3 181.9 187.9 181.4C188.1 181.2 186.9 177.9 185.2 174C182.3 167.3 182.2 167 184.1 167C186.4 167 186.2 166.1 182.9 158.4C181.3 154.9 180.4 154 178.5 154C177 154 176 153.4 176 152.6C176 151.8 174.4 149.8 172.5 148.1C166.6 142.9 167.6 141.7 177.5 142.1C185.4 142.5 186.2 142.7 188.9 145.5C191.8 148.6 207.5 183.8 206.4 184.9C206.1 185.2 187.2 185.6 164.4 185.9L123 186.2V192.1V198H104H85V192Z" fill="#9DB5BA"/>
<path d="M19 165.1C19 163.6 20 160 21.1 157.1C23.1 152.4 23.5 152 26.6 152C28.5 152 30 152.5 30 153C30 153.6 29.4 154 28.6 154C27.5 154 26.3 156.2 22.3 165.7C22.1 166.3 22.9 167 24.2 167.3C25.7 167.6 25.2 167.8 22.8 167.9C19.3 168 19 167.8 19 165.1Z" fill="#9DB5BA"/>
<path d="M16 149.2C16 146.9 22.3 142 25.2 142C26.3 142 27 142.8 27 144C27 145.4 26.3 146 24.6 146C23.1 146 22 146.7 21.7 148C21.4 149.4 20.3 150 18.6 150C17.2 150 16 149.6 16 149.2Z" fill="#9DB5BA"/>
<path d="M43.1 185.3C9.89998 185 0.89998 184.7 1.29998 183.7C12.7 156.4 16.6 148.1 19.1 145.5L22 142.5L97 142.2L171.9 142L175.2 144.9C177 146.5 179 149.2 179.7 150.9L180.8 154H103.9H26.9L24.4 159.5C23.1 162.6 22 165.5 22 166C22 166.6 51.7 167 104.3 167H186.6L190.3 175.7C192.3 180.5 193.9 184.4 193.7 184.5C193.2 185 81.4 185.5 43.1 185.3Z" fill="#BDDBE0"/>
</g>
<defs>
<clipPath id="clip0_2600_492">
<rect width="208" height="208" fill="white"/>
</clipPath>
</defs>
</svg>
