<svg width="52" height="52" viewBox="0 0 52 52" fill="none" xmlns="http://www.w3.org/2000/svg">
<circle cx="26" cy="26" r="26" fill="#E4BF44"/>
<path d="M13.9196 34.6078C12.9462 34.3453 12.186 33.4649 12.0548 32.4531C11.9837 31.9063 11.9837 20.0938 12.0548 19.5469C12.186 18.5188 12.9517 17.6492 13.9415 17.3867C14.4228 17.2664 28.7673 17.2609 29.2431 17.3867C30.1673 17.6274 30.8618 18.3109 31.097 19.2133C31.1681 19.5031 31.1899 19.8313 31.1899 20.8758C31.1954 21.5867 31.2063 22.1719 31.2228 22.1719C31.2392 22.1719 33.0056 21.4719 35.1438 20.6133C37.3259 19.7438 39.1196 19.0547 39.2126 19.0547C39.4095 19.0547 39.6938 19.2297 39.8579 19.4539L39.9728 19.607V26V32.393L39.8579 32.5461C39.6938 32.7703 39.4095 32.9453 39.2126 32.9453C39.1196 32.9453 37.2931 32.2453 35.1493 31.3867C33.0056 30.5281 31.2337 29.8281 31.2228 29.8281C31.2063 29.8281 31.1954 30.4133 31.1899 31.1297C31.1899 32.1688 31.1681 32.4969 31.097 32.7867C30.8618 33.6891 30.1673 34.3727 29.2431 34.6133C28.7782 34.7336 14.3681 34.7281 13.9196 34.6078ZM29.1938 32.9234C29.3087 32.8359 29.4509 32.6664 29.5056 32.5406C29.604 32.3274 29.6095 32.0539 29.6095 26C29.6095 19.9461 29.604 19.6727 29.5056 19.4594C29.4509 19.3336 29.3087 19.1641 29.1938 19.0766L28.9915 18.918L21.7126 18.9016C13.597 18.8852 14.122 18.8633 13.8157 19.2625L13.6681 19.4539V25.9945V32.5352L13.7993 32.7211C13.8704 32.8195 14.029 32.9508 14.1548 33.0055C14.3681 33.1039 14.6524 33.1094 21.6853 33.093L28.9915 33.082L29.1938 32.9234ZM38.3595 26.0055V21.0344L34.7774 22.4617L31.1954 23.8945V26V28.1055L34.7665 29.5383C36.7243 30.3203 38.3376 30.9711 38.3485 30.9711C38.354 30.9766 38.3595 28.7399 38.3595 26.0055Z" fill="black"/>
<rect x="35.2026" y="14.7166" width="1.57865" height="31.4964" rx="0.789324" transform="rotate(45.858 35.2026 14.7166)" fill="black"/>
</svg>
