<svg width="44" height="44" viewBox="0 0 44 44" fill="none" xmlns="http://www.w3.org/2000/svg">
<path d="M18.0713 11.7857H14.9284C14.9284 10.9214 15.6356 10.2143 16.4999 10.2143C17.3641 10.2143 18.0713 10.9214 18.0713 11.7857ZM29.0713 11.7857C29.0713 10.9214 28.3641 10.2143 27.4999 10.2143C26.6356 10.2143 25.9284 10.9214 25.9284 11.7857H29.0713ZM29.0713 22.7857V29.0714H14.9284V20.4286H25.9284H29.0713H31.4284V19.6429V16.5C31.4284 15.1643 30.407 14.1429 29.0713 14.1429H14.9284C13.5927 14.1429 12.5713 15.1643 12.5713 16.5V19.6429V29.0714C12.5713 30.4072 13.5927 31.4286 14.9284 31.4286H29.0713C30.407 31.4286 31.4284 30.4072 31.4284 29.0714V22.7857H29.0713Z" fill="#D1D0D0"/>
</svg>
