<svg width="36" height="36" viewBox="0 0 36 36" fill="none" xmlns="http://www.w3.org/2000/svg">
<g clip-path="url(#clip0_1_674)">
<path d="M29.2149 35.8945C29.0743 35.8383 28.2024 35.3672 27.2743 34.8398L25.6009 33.8765L23.9977 34.7906C21.9446 35.9508 21.9938 35.9297 21.6563 35.9297C21.129 35.9297 20.7282 35.6062 20.6087 35.0859C20.5665 34.9101 20.5313 33.9187 20.5313 32.857V30.9375H13.1345C8.59228 30.9375 5.54072 30.9093 5.24541 30.8672C4.12744 30.7054 3.32588 29.9039 3.16416 28.7789C3.06572 28.0968 3.07275 2.71404 3.17119 2.10935C3.34697 1.03357 4.12744 0.246069 5.21025 0.0702881C5.829 -0.0281494 25.1087 -0.0281494 25.7274 0.0702881C26.304 0.168726 26.761 0.400757 27.1196 0.794507C27.5134 1.22341 27.6892 1.58904 27.7735 2.15857C27.8157 2.43982 27.8438 5.16091 27.8438 8.84529C27.8438 13.4226 27.8649 15.0469 27.9212 15.0469C28.0759 15.0469 29.3063 15.6656 29.7142 15.9469C31.0853 16.882 32.0837 18.2883 32.604 20.0039C32.7798 20.5945 32.7938 20.7281 32.7938 21.9375C32.7938 23.4492 32.7095 23.8711 32.1681 25.0101C31.8306 25.7273 31.5423 26.1633 31.0009 26.7961L30.6634 27.1898L30.6423 31.1554C30.6212 34.9734 30.6142 35.1281 30.4806 35.3601C30.1993 35.8383 29.686 36.0562 29.2149 35.8945ZM24.1735 32.182C25.2353 31.5703 25.4884 31.4789 25.8399 31.5773C25.9735 31.6125 26.5993 31.9429 27.2251 32.3015L28.3712 32.9625L28.3923 30.8461C28.3993 29.6859 28.3993 28.7226 28.3782 28.7086C28.3642 28.6945 28.1532 28.7508 27.9071 28.8281C26.5079 29.2992 24.6868 29.3062 23.2946 28.8351C23.0556 28.7508 22.8376 28.6875 22.8165 28.6875C22.7954 28.6875 22.7813 29.6578 22.7813 30.839V32.9906L23.0134 32.85C23.1329 32.7726 23.6602 32.4703 24.1735 32.182ZM20.5313 27.9422V27.1898L20.1306 26.7258C18.8017 25.1719 18.204 23.3297 18.3657 21.3047C18.5134 19.3922 19.5048 17.5289 21.0235 16.2914C22.1134 15.4054 23.597 14.8078 24.947 14.7094L25.5587 14.6601L25.5798 8.45154L25.5938 2.24998H15.4688H5.34384V15.4687V28.6875H12.9376H20.5313V27.9422ZM26.7892 26.8875C27.7946 26.6554 28.8774 25.9664 29.5524 25.1367C29.9673 24.6234 30.4032 23.7445 30.5438 23.1328C30.6845 22.5422 30.6845 21.3328 30.5438 20.7422C30.2204 19.364 29.2149 18.0914 27.9071 17.4023C26.5431 16.6851 24.6446 16.6851 23.2806 17.4023C21.9868 18.0844 21.0165 19.2867 20.672 20.6437C20.4962 21.3117 20.4821 22.4718 20.6438 23.1328C20.8759 24.1383 21.5649 25.2211 22.3946 25.8961C22.8938 26.3039 23.7798 26.7468 24.3634 26.8875C24.9329 27.0211 26.2126 27.0281 26.7892 26.8875Z" fill="black"/>
<path d="M9.65436 16.8118C9.06373 16.6641 8.76842 16.2633 8.81061 15.6586C8.8317 15.3141 8.86686 15.2227 9.06373 15.0188C9.20436 14.8711 9.41529 14.7516 9.60514 14.7024C10.02 14.5969 15.3286 14.5969 15.7153 14.7024C16.6715 14.9625 16.8192 16.193 15.9614 16.6922C15.7223 16.8329 15.6028 16.8399 12.7973 16.854C11.1942 16.861 9.77389 16.8399 9.65436 16.8118Z" fill="black"/>
<path d="M9.66797 12.3116C9.37969 12.2413 9.20391 12.1359 9 11.9179C8.84531 11.7562 8.82422 11.6648 8.82422 11.2499C8.82422 10.7929 8.83828 10.7507 9.06328 10.5187C9.20391 10.371 9.41484 10.2515 9.60469 10.2023C10.0266 10.0968 19.2586 10.0968 19.6523 10.2023C20.6086 10.4624 20.7563 11.6929 19.8984 12.1921C19.6594 12.3398 19.5609 12.3398 14.7656 12.3538C12.0797 12.3609 9.7875 12.3398 9.66797 12.3116Z" fill="black"/>
<path d="M9.66797 7.81165C9.37969 7.74133 9.20391 7.63586 9 7.4179C8.84531 7.25618 8.82422 7.16477 8.82422 6.74993C8.82422 6.2929 8.83828 6.25071 9.06328 6.01868C9.20391 5.87102 9.41484 5.75149 9.60469 5.70227C10.0266 5.5968 19.2586 5.5968 19.6523 5.70227C20.6086 5.96243 20.7563 7.1929 19.8984 7.69211C19.6594 7.83977 19.5609 7.83977 14.7656 7.85383C12.0797 7.86086 9.7875 7.83977 9.66797 7.81165Z" fill="black"/>
<path d="M24.3636 24.5461C23.7097 24.1594 22.6128 23.3789 22.4792 23.1961C21.8956 22.3945 22.662 21.2766 23.6253 21.5367C23.7589 21.5719 24.0542 21.7266 24.2792 21.8813C24.5394 22.057 24.7152 22.1414 24.7573 22.0992C24.7995 22.057 25.2003 21.4805 25.6503 20.8125C26.5011 19.5469 26.6769 19.357 27.0777 19.2727C28.0339 19.0688 28.6597 20.0883 28.1323 20.9883C27.5487 21.9797 25.8191 24.4477 25.6011 24.5883C25.2566 24.8203 24.8136 24.8063 24.3636 24.5461Z" fill="black"/>
</g>
<defs>
<clipPath id="clip0_1_674">
<rect width="36" height="36" fill="white"/>
</clipPath>
</defs>
</svg>
