<svg width="120" height="120" viewBox="0 0 120 120" fill="none" xmlns="http://www.w3.org/2000/svg">
<circle opacity="0.4" cx="60" cy="60" r="40" fill="#212636"/>
<path d="M60 78C69.9411 78 78 69.9411 78 60C78 50.0589 69.9411 42 60 42C50.0589 42 42 50.0589 42 60C42 69.9411 50.0589 78 60 78Z" stroke="#FF2C4A" stroke-width="2" stroke-miterlimit="10"/>
<path d="M60 51V61.5" stroke="#FF2C4A" stroke-width="2" stroke-linecap="round" stroke-linejoin="round"/>
<path d="M60 70.5C61.2426 70.5 62.25 69.4926 62.25 68.25C62.25 67.0074 61.2426 66 60 66C58.7574 66 57.75 67.0074 57.75 68.25C57.75 69.4926 58.7574 70.5 60 70.5Z" fill="#FF2C4A"/>
<circle cx="60" cy="60" r="49.5" stroke="url(#paint0_linear_1_9504)"/>
<g filter="url(#filter0_f_1_9504)">
<circle cx="60" cy="60" r="10" fill="#2C9BF6"/>
</g>
<defs>
<filter id="filter0_f_1_9504" x="0" y="0" width="120" height="120" filterUnits="userSpaceOnUse" color-interpolation-filters="sRGB">
<feFlood flood-opacity="0" result="BackgroundImageFix"/>
<feBlend mode="normal" in="SourceGraphic" in2="BackgroundImageFix" result="shape"/>
<feGaussianBlur stdDeviation="25" result="effect1_foregroundBlur_1_9504"/>
</filter>
<linearGradient id="paint0_linear_1_9504" x1="60" y1="-32.5" x2="60" y2="87" gradientUnits="userSpaceOnUse">
<stop stop-color="#2C9BF6"/>
<stop offset="1" stop-color="#2C9BF6" stop-opacity="0"/>
</linearGradient>
</defs>
</svg>
