<svg width="24" height="24" viewBox="0 0 24 24" fill="none" xmlns="http://www.w3.org/2000/svg">
<g clip-path="url(#clip0_1_806)">
<path d="M3.46875 23.9531C1.82812 23.7844 0.539063 22.6453 0.159375 21.0188C0.075 20.6672 0.0703125 20.2688 0.0703125 12C0.0703125 3.73125 0.075 3.33281 0.159375 2.98125C0.501563 1.51875 1.56562 0.454688 3.02812 0.1125C3.375 0.028125 3.68906 0.0234375 8.50781 0.0234375C13.3266 0.0234375 13.6406 0.028125 13.9875 0.1125C15.4547 0.454688 16.5188 1.52344 16.8563 2.98125C16.9266 3.29063 16.9453 3.55781 16.9453 4.59375C16.9453 5.775 16.9406 5.84531 16.8469 6.02344C16.6687 6.35625 16.4016 6.51563 16.0312 6.51563C15.6609 6.51563 15.3938 6.35156 15.2203 6.02344C15.1266 5.85 15.1172 5.74219 15.0938 4.54688L15.0703 3.25781L14.925 2.95313C14.7422 2.56406 14.4047 2.22656 14.0156 2.04375L13.7109 1.89844H8.50781H3.30469L3 2.04375C2.61094 2.22656 2.27344 2.56406 2.09062 2.95313L1.94531 3.25781V12V20.7422L2.09062 21.0469C2.27344 21.4359 2.61094 21.7734 3 21.9563L3.30469 22.1016H8.50781H13.7109L14.0156 21.9563C14.4047 21.7734 14.7422 21.4359 14.925 21.0469L15.0703 20.7422L15.0938 19.4531C15.1172 18.2578 15.1266 18.15 15.2203 17.9766C15.3938 17.6484 15.6609 17.4844 16.0312 17.4844C16.4062 17.4844 16.6688 17.6484 16.8563 18C16.9359 18.15 16.9453 18.2813 16.9453 19.4063C16.9453 20.4422 16.9266 20.7094 16.8563 21.0188C16.5234 22.4625 15.4922 23.5078 14.0156 23.8922C13.7391 23.9625 13.2422 23.9719 8.76562 23.9813C6.04688 23.9859 3.66094 23.9719 3.46875 23.9531Z" fill="#2A2A2A"/>
<path d="M20.2266 15.9607C20.0437 15.8764 19.9641 15.8061 19.8281 15.6092C19.7344 15.4732 19.7109 15.3889 19.7109 15.1404C19.7109 14.742 19.7906 14.6295 20.7141 13.7107L21.4219 13.0076L15.6937 12.9842C10.2094 12.9607 9.95156 12.9561 9.79688 12.8717C9.44531 12.6842 9.28125 12.4217 9.28125 12.0467C9.28125 11.6717 9.44531 11.4092 9.79688 11.2217C9.95156 11.1373 10.2094 11.1326 15.6937 11.1092L21.4219 11.0857L20.7141 10.3826C19.7906 9.46387 19.7109 9.35137 19.7109 8.95293C19.7109 8.60605 19.8234 8.39043 20.1 8.20293C20.2828 8.07168 20.6813 8.0248 20.9156 8.10449C21.1313 8.1748 23.5734 10.6264 23.7188 10.9217C24.1031 11.6857 24.1031 12.4076 23.7188 13.1717C23.5875 13.4342 21.1875 15.8717 20.9672 15.9654C20.775 16.0498 20.4094 16.0451 20.2266 15.9607Z" fill="#2A2A2A"/>
</g>
<defs>
<clipPath id="clip0_1_806">
<rect width="24" height="24" fill="white"/>
</clipPath>
</defs>
</svg>
