<svg width="28" height="28" viewBox="0 0 28 28" fill="none" xmlns="http://www.w3.org/2000/svg">
<path d="M5.78555 27.9454C4.64258 27.8087 3.69102 26.8243 3.5543 25.6376C3.4832 25.0361 3.4832 13.4642 3.5543 12.8626C3.69648 11.6321 4.63164 10.697 5.86211 10.5548C6.11367 10.522 6.46914 10.5001 6.64961 10.5001H6.9832L7.01602 8.35637C7.04883 6.06496 7.08711 5.68762 7.38242 4.81262C8.07695 2.75637 9.75586 1.07746 11.8121 0.382929C13.1082 -0.0545707 14.8145 -0.0655082 16.1105 0.361054C18.216 1.04465 19.9113 2.72355 20.6168 4.81262C20.9121 5.68762 20.9504 6.06496 20.9832 8.3509L21.016 10.5001H21.3496C21.5301 10.5001 21.8855 10.522 22.1371 10.5548C23.3676 10.697 24.3027 11.6321 24.4449 12.8626C24.516 13.4642 24.516 25.0361 24.4449 25.6376C24.3027 26.8681 23.3676 27.8032 22.1371 27.9454C21.5902 28.0111 6.32695 28.0056 5.78555 27.9454ZM22.3559 26.1407C22.4543 26.0806 22.5801 25.9548 22.6402 25.8564C22.7496 25.6814 22.7496 25.5665 22.7496 19.2501C22.7496 12.9337 22.7496 12.8189 22.6402 12.6439C22.5801 12.5454 22.4543 12.4196 22.3559 12.3595C22.1754 12.2501 22.0605 12.2501 13.9996 12.2501C5.93867 12.2501 5.82383 12.2501 5.64336 12.3595C5.54492 12.4196 5.41914 12.5454 5.35898 12.6439C5.24961 12.8189 5.24961 12.9337 5.24961 19.2501C5.24961 25.5665 5.24961 25.6814 5.35898 25.8564C5.41914 25.9548 5.54492 26.0806 5.64336 26.1407C5.82383 26.2501 5.93867 26.2501 13.9996 26.2501C22.0605 26.2501 22.1754 26.2501 22.3559 26.1407ZM19.2387 8.24699C19.2168 6.0759 19.2113 5.97199 19.091 5.57824C18.4895 3.6259 16.9691 2.22043 15.0441 1.83215C14.4043 1.7009 13.1574 1.74465 12.5777 1.91418C10.9809 2.38996 9.72305 3.52199 9.10508 5.0423C8.77695 5.85715 8.74961 6.10324 8.74961 8.42199V10.5001H14.0051H19.2551L19.2387 8.24699Z" fill="#2A2A2A"/>
<path d="M13.6227 23.2039C13.3875 23.0781 13.2398 22.8867 13.1797 22.6078C13.1523 22.493 13.125 21.7711 13.125 21.0164V19.6328L12.8953 19.518C12.5398 19.3375 12.1023 18.8617 11.9055 18.4461C11.7414 18.1016 11.7305 18.0305 11.7305 17.5C11.7305 16.9695 11.7414 16.8984 11.9055 16.5539C12.1352 16.0672 12.5672 15.6352 13.0539 15.4055C13.3984 15.2414 13.4695 15.2305 14 15.2305C14.5305 15.2305 14.6016 15.2414 14.9461 15.4055C15.4328 15.6352 15.8648 16.0672 16.0945 16.5539C16.2586 16.8984 16.2695 16.9695 16.2695 17.5C16.2695 18.0305 16.2586 18.1016 16.0945 18.4461C15.8977 18.8617 15.4602 19.3375 15.1047 19.518L14.8805 19.6328L14.8641 21.1477C14.8477 22.5531 14.8367 22.6844 14.7383 22.8539C14.6781 22.9578 14.5633 23.0891 14.4812 23.1492C14.2789 23.3023 13.8578 23.3297 13.6227 23.2039ZM14.4156 17.9156C14.5688 17.7625 14.6016 17.6859 14.6016 17.5C14.6016 17.3141 14.5688 17.2375 14.4156 17.0844C14.2625 16.9312 14.1859 16.8984 14 16.8984C13.8141 16.8984 13.7375 16.9312 13.5844 17.0844C13.4312 17.2375 13.3984 17.3141 13.3984 17.5C13.3984 17.6859 13.4312 17.7625 13.5844 17.9156C13.7375 18.0688 13.8141 18.1016 14 18.1016C14.1859 18.1016 14.2625 18.0688 14.4156 17.9156Z" fill="#2A2A2A"/>
</svg>
