<svg width="44" height="44" viewBox="0 0 44 44" fill="none" xmlns="http://www.w3.org/2000/svg">
<path d="M21.999 14.1428C22.4704 14.1428 22.8633 14.4571 23.0204 14.9285L23.4133 16.2642C23.7276 17.5214 25.0633 18.2285 26.2419 17.9142L27.5776 17.5214C28.049 17.3642 28.5204 17.5999 28.7561 17.9928C28.9919 18.3856 28.9133 18.9356 28.599 19.2499L27.5776 20.2714C26.6347 21.2142 26.6347 22.6285 27.5776 23.5714L28.599 24.5928C28.9133 24.9071 28.9919 25.4571 28.7561 25.8499C28.5204 26.2428 28.049 26.4785 27.5776 26.3214L26.2419 25.9285C24.9847 25.6142 23.7276 26.3214 23.4133 27.5785L23.0204 29.0714C22.8633 29.5428 22.4704 29.8571 21.999 29.8571C21.5276 29.8571 21.1347 29.5428 20.9776 29.0714L20.5847 27.7356C20.2704 26.4785 18.9347 25.7714 17.7561 26.0856L16.4204 26.4785C15.949 26.6356 15.4776 26.3999 15.2419 26.0071C15.0061 25.6142 15.0847 25.0642 15.399 24.7499L16.4204 23.7285C17.3633 22.7856 17.3633 21.3714 16.4204 20.4285L15.399 19.3285C15.0061 19.0142 14.9276 18.4642 15.2419 18.0714C15.4776 17.6785 15.949 17.4428 16.4204 17.5999L17.7561 17.9928C19.0133 18.3071 20.2704 17.5999 20.5847 16.3428L20.9776 14.9285C21.1347 14.4571 21.5276 14.1428 21.999 14.1428ZM24.5919 11.7856H19.4061L18.3847 15.6356L14.4561 14.6142L11.8633 19.1714L14.6919 21.9999L11.8633 24.8285L14.4561 29.3071L18.3061 28.2856L19.4061 32.2142H24.5919L25.6919 28.3642L29.5419 29.3856L32.1347 24.9071L29.3061 21.9999L32.1347 19.1714L29.5419 14.6928L25.6919 15.7142L24.5919 11.7856ZM21.999 19.6428C20.6633 19.6428 19.6419 20.6642 19.6419 21.9999C19.6419 23.3356 20.6633 24.3571 21.999 24.3571C23.3347 24.3571 24.3561 23.3356 24.3561 21.9999C24.3561 20.6642 23.3347 19.6428 21.999 19.6428Z" fill="#D1D0D0"/>
</svg>
