<svg width="24" height="24" viewBox="0 0 24 24" fill="none" xmlns="http://www.w3.org/2000/svg">
<g clip-path="url(#clip0_1_792)">
<path d="M18.1176 23.9483C17.1613 23.8733 16.3832 23.5968 15.5348 23.0343L15.1504 22.7812L14.6441 22.8327C13.2004 22.9687 10.0223 22.9687 8.29727 22.828C7.14414 22.7343 5.72852 22.5562 5.17539 22.4296C3.1832 21.9749 1.35508 20.2827 0.684766 18.2812C0.445703 17.564 0.216016 15.8765 0.0941406 13.9358C0.0285156 12.8999 0.0285156 10.0687 0.0941406 9.03271C0.216016 7.09678 0.445703 5.41397 0.684766 4.6874C1.29414 2.86397 2.86445 1.29365 4.68789 0.684277C5.41445 0.445215 7.09727 0.215527 9.04258 0.0936523C10.0785 0.0280273 12.9051 0.0280273 13.9457 0.0936523C15.8535 0.21084 17.5645 0.445215 18.2816 0.684277C20.1191 1.29834 21.6754 2.85459 22.2848 4.6874C22.4957 5.32959 22.6973 6.65615 22.8285 8.29678C22.9645 9.99834 22.9645 13.214 22.8332 14.6437L22.7816 15.1499L23.0395 15.539C23.7426 16.5937 24.0426 17.7421 23.9441 19.0218C23.8035 20.9249 22.6129 22.6265 20.8363 23.4655C20.3254 23.7093 19.6316 23.8968 19.1254 23.9343C18.9332 23.9483 18.7223 23.9624 18.6566 23.9718C18.591 23.9765 18.352 23.9671 18.1176 23.9483ZM19.3645 22.153C20.5738 21.8952 21.6145 20.9624 22.0504 19.7437C22.191 19.3499 22.1957 19.3077 22.1957 18.5858C22.1957 17.7233 22.1535 17.5312 21.8066 16.8515C21.5113 16.2749 20.8738 15.628 20.3207 15.3421C19.7348 15.0421 19.3738 14.9483 18.727 14.9202C17.5973 14.8733 16.777 15.1921 15.9848 15.9843C15.2348 16.7343 14.9113 17.5265 14.9066 18.5905C14.9066 19.1905 15.0191 19.6546 15.3145 20.2499C15.4973 20.6296 15.5957 20.7608 15.9801 21.1405C16.3457 21.5062 16.5098 21.6327 16.8613 21.8108C17.0957 21.9327 17.4566 22.0733 17.6582 22.1202C18.1035 22.2327 18.9191 22.2468 19.3645 22.153ZM13.491 21.1593C13.6926 21.1405 13.7816 21.1171 13.7629 21.0796C13.5988 20.7187 13.3879 20.1421 13.3082 19.8468C13.1676 19.3124 13.1348 18.2155 13.2379 17.6483C13.3785 16.8843 13.6551 16.1952 14.0863 15.539C14.3301 15.164 15.1832 14.3155 15.5629 14.0671C16.5707 13.4108 17.5879 13.1343 18.8113 13.1858C19.6457 13.2187 20.1988 13.3593 21.0754 13.7624C21.1691 13.8046 21.1973 13.3218 21.1973 11.5874C21.1973 9.42647 21.0988 7.92178 20.8551 6.2624C20.6723 5.02022 20.3723 4.35928 19.6223 3.57178C19.2004 3.13115 18.8535 2.85928 18.3613 2.60146C17.8551 2.33428 17.4988 2.23115 16.6832 2.11396C14.991 1.87021 13.5848 1.78115 11.4848 1.78115C9.39414 1.78115 7.89883 1.8749 6.28164 2.11396C5.03008 2.29678 4.35508 2.60615 3.56758 3.35146C2.99102 3.8999 2.56914 4.52803 2.34414 5.18428C2.16133 5.6999 1.93633 7.4249 1.82852 9.11709C1.76758 10.0827 1.76758 12.8858 1.82852 13.8515C1.93164 15.4733 2.1332 17.0671 2.30195 17.6483C2.63008 18.7499 3.58164 19.8608 4.66445 20.4046C5.27852 20.7093 5.94414 20.8499 7.59414 21.0187C9.2957 21.1968 12.2816 21.2671 13.491 21.1593Z" fill="#2A2A2A"/>
<path d="M18.2394 21.3328C17.8972 21.2906 17.7425 21.1218 17.6956 20.7281C17.6535 20.3578 17.7097 19.9499 17.8222 19.8046C17.9347 19.6593 18.1738 19.5937 18.5863 19.5984C18.9894 19.5984 19.205 19.6687 19.3316 19.8421C19.416 19.9593 19.43 20.0437 19.43 20.4749C19.43 21.1781 19.3363 21.2953 18.7503 21.3421C18.6097 21.3515 18.38 21.3468 18.2394 21.3328Z" fill="#2A2A2A"/>
<path d="M18.2109 18.9092C17.7563 18.6607 17.7188 18.5482 17.7188 17.3623C17.7188 16.4482 17.7234 16.3873 17.8219 16.2092C18.1453 15.6373 18.9891 15.6467 19.3125 16.2185C19.425 16.4248 19.4297 16.4529 19.4297 17.3904C19.4297 18.4732 19.4156 18.5295 19.0641 18.8107C18.8484 18.9888 18.4406 19.0357 18.2109 18.9092Z" fill="#2A2A2A"/>
<path d="M5.46605 13.242C4.98324 13.0732 4.75355 12.567 4.94574 12.1076C5.03949 11.8826 5.13793 11.7748 5.35355 11.667C5.52699 11.5779 5.66761 11.5779 9.20199 11.5873L12.877 11.6013L13.0457 11.7326C13.3692 11.9763 13.491 12.4076 13.3411 12.7638C13.2614 12.9654 12.9848 13.1998 12.7645 13.2607C12.6473 13.2935 11.4004 13.3123 9.11761 13.3123C6.29574 13.3076 5.61605 13.2982 5.46605 13.242Z" fill="#2A2A2A"/>
<path d="M5.36732 7.65464C5.1517 7.54214 5.05795 7.4437 4.9642 7.24214C4.86107 7.01714 4.8517 6.75464 4.94076 6.54839C5.02045 6.34683 5.29701 6.11245 5.51732 6.05151C5.77513 5.9812 17.2033 5.9812 17.4611 6.05151C17.7095 6.12183 17.9767 6.3937 18.047 6.6562C18.1548 7.04526 17.9626 7.46714 17.6017 7.64058C17.4095 7.73433 17.3111 7.73433 11.4564 7.73433C6.12201 7.72964 5.49388 7.72495 5.36732 7.65464Z" fill="#2A2A2A"/>
</g>
<defs>
<clipPath id="clip0_1_792">
<rect width="24" height="24" fill="white"/>
</clipPath>
</defs>
</svg>
