<svg width="84" height="92" viewBox="0 0 84 92" fill="none" xmlns="http://www.w3.org/2000/svg">
<path d="M54.4852 88.6578C52.1063 87.957 49.8586 85.8906 48.7758 83.4109L48.1523 81.9555L26.4141 81.9016C2.49375 81.8476 4.26562 81.9375 3.28125 80.7695C2.92031 80.3562 2.87109 80.1227 2.87109 79.0625C2.87109 77.8945 2.90391 77.7867 3.42891 77.1937C3.75703 76.8164 4.24922 76.5109 4.69219 76.3852C5.18438 76.2414 11.8781 76.1875 26.775 76.1875L48.1523 76.1695L48.7594 74.75C50.5641 70.5992 54.8625 68.3172 58.9148 69.3594C61.6711 70.0781 64.4766 72.7375 65.2805 75.4328L65.5102 76.1695L70.957 76.2234L76.4039 76.2773L76.9945 76.7266C77.6344 77.1937 78.2578 78.3437 78.2578 79.0625C78.2578 79.7812 77.6344 80.9312 76.9945 81.3984L76.4039 81.8477L70.957 81.9016L65.5102 81.9555L65.2805 82.6922C64.5094 85.2797 61.9828 87.7594 59.243 88.6578C58.1273 89.0172 55.6992 89.0172 54.4852 88.6578ZM58.7344 82.9258C61.5891 81.3445 61.5563 76.6547 58.6688 75.1812C55.8961 73.7617 52.9266 75.7742 52.9266 79.0625C52.9266 80.8234 53.8453 82.4047 55.2891 83.0875C56.2078 83.5187 57.7828 83.4469 58.7344 82.9258Z" fill="#E4BF44"/>
<path d="M9.79434 65.9274C6.23418 65.4781 3.21543 62.0821 2.78887 58.0211C2.57559 56.0086 2.57559 12.9914 2.78887 10.9789C3.23184 6.79221 6.20137 3.53987 10.024 3.05471C11.8779 2.82112 72.1217 2.82112 73.9756 3.05471C77.7982 3.53987 80.7678 6.79221 81.2107 10.9789C81.424 12.9914 81.424 56.0086 81.2107 58.0211C80.7678 62.2078 77.7982 65.4602 73.9756 65.9453C72.3021 66.161 11.4514 66.143 9.79434 65.9274ZM74.6811 59.9797C75.042 59.7461 75.5178 59.243 75.7311 58.8297L76.1248 58.093V34.5V10.925L75.7639 10.2063C75.5506 9.81096 75.0912 9.28987 74.7139 9.05627L74.0412 8.62502H41.9998H9.9584L9.28574 9.05627C8.9084 9.28987 8.44902 9.81096 8.23574 10.2063L7.8748 10.925V34.518V58.1289L8.26855 58.8297C8.48184 59.2071 8.94121 59.7102 9.28574 59.9438L9.92559 60.375H41.9834H74.0248L74.6811 59.9797Z" fill="#E4BF44"/>
<path d="M33.5508 51.5344C32.8453 51.3727 32.2711 50.8696 31.8609 50.043C31.6148 49.5578 31.582 48.1203 31.582 34.5C31.582 20.8797 31.6148 19.4422 31.8609 18.9571C32.5008 17.6813 33.7148 17.0883 34.8469 17.5196C35.6672 17.825 56.2242 31.8946 56.8969 32.6133C57.8977 33.6555 57.8813 35.3985 56.8805 36.4227C56.4539 36.8719 36.7828 50.4203 35.4539 51.193C34.7813 51.5883 34.2234 51.6961 33.5508 51.5344ZM50.2031 34.5C50.2031 34.4461 47.1844 32.3258 43.4766 29.7922L36.75 25.1742V34.5V43.8258L43.4766 39.2078C47.1844 36.6742 50.2031 34.5539 50.2031 34.5Z" fill="#E4BF44"/>
</svg>
